<?xml version="1.0" encoding="us-ascii" standalone="no"?><svg xmlns="http://www.w3.org/2000/svg" xmlns:xlink="http://www.w3.org/1999/xlink" contentStyleType="text/css" height="1290px" preserveAspectRatio="none" style="width:5991px;height:1290px;background:#FFFFFF;" version="1.1" viewBox="0 0 5991 1290" width="5991px" zoomAndPan="magnify"><defs/><g><!--cluster com--><g id="cluster_com"><path d="M8.5,266 L38.5,266 A3.75,3.75 0 0 1 41,268.5 L48,289.1514 L5981.5,289.1514 A2.5,2.5 0 0 1 5984,291.6514 L5984,1280.5 A2.5,2.5 0 0 1 5981.5,1283 L8.5,1283 A2.5,2.5 0 0 1 6,1280.5 L6,268.5 A2.5,2.5 0 0 1 8.5,266 " fill="none" style="stroke:#000000;stroke-width:1.5;"/><line style="stroke:#000000;stroke-width:1.5;" x1="6" x2="48" y1="289.1514" y2="289.1514"/><text fill="#000000" font-family="sans-serif" font-size="14" font-weight="bold" lengthAdjust="spacing" textLength="29" x="10" y="282.0752">com</text></g><!--cluster n4ims--><g id="cluster_n4ims"><path d="M32.5,310 L74.5,310 A3.75,3.75 0 0 1 77,312.5 L84,333.1514 L5957.5,333.1514 A2.5,2.5 0 0 1 5960,335.6514 L5960,1256.5 A2.5,2.5 0 0 1 5957.5,1259 L32.5,1259 A2.5,2.5 0 0 1 30,1256.5 L30,312.5 A2.5,2.5 0 0 1 32.5,310 " fill="none" style="stroke:#000000;stroke-width:1.5;"/><line style="stroke:#000000;stroke-width:1.5;" x1="30" x2="84" y1="333.1514" y2="333.1514"/><text fill="#000000" font-family="sans-serif" font-size="14" font-weight="bold" lengthAdjust="spacing" textLength="41" x="34" y="326.0752">n4ims</text></g><!--cluster hotelsystem--><g id="cluster_hotelsystem"><path d="M56.5,354 L142.5,354 A3.75,3.75 0 0 1 145,356.5 L152,377.1514 L5933.5,377.1514 A2.5,2.5 0 0 1 5936,379.6514 L5936,1232.5 A2.5,2.5 0 0 1 5933.5,1235 L56.5,1235 A2.5,2.5 0 0 1 54,1232.5 L54,356.5 A2.5,2.5 0 0 1 56.5,354 " fill="none" style="stroke:#000000;stroke-width:1.5;"/><line style="stroke:#000000;stroke-width:1.5;" x1="54" x2="152" y1="377.1514" y2="377.1514"/><text fill="#000000" font-family="sans-serif" font-size="14" font-weight="bold" lengthAdjust="spacing" textLength="85" x="58" y="370.0752">hotelsystem</text></g><!--cluster controllers--><g id="cluster_controllers"><path d="M2978.5,398 L3056.5,398 A3.75,3.75 0 0 1 3059,400.5 L3066,421.1514 L5909.5,421.1514 A2.5,2.5 0 0 1 5912,423.6514 L5912,1100.5 A2.5,2.5 0 0 1 5909.5,1103 L2978.5,1103 A2.5,2.5 0 0 1 2976,1100.5 L2976,400.5 A2.5,2.5 0 0 1 2978.5,398 " fill="none" style="stroke:#000000;stroke-width:1.5;"/><line style="stroke:#000000;stroke-width:1.5;" x1="2976" x2="3066" y1="421.1514" y2="421.1514"/><text fill="#000000" font-family="sans-serif" font-size="14" font-weight="bold" lengthAdjust="spacing" textLength="77" x="2980" y="414.0752">controllers</text></g><!--cluster converters--><g id="cluster_converters"><path d="M5064.5,492.5 L5143.5,492.5 A3.75,3.75 0 0 1 5146,495 L5153,515.6514 L5885.5,515.6514 A2.5,2.5 0 0 1 5888,518.1514 L5888,624 A2.5,2.5 0 0 1 5885.5,626.5 L5064.5,626.5 A2.5,2.5 0 0 1 5062,624 L5062,495 A2.5,2.5 0 0 1 5064.5,492.5 " fill="none" style="stroke:#000000;stroke-width:1.5;"/><line style="stroke:#000000;stroke-width:1.5;" x1="5062" x2="5153" y1="515.6514" y2="515.6514"/><text fill="#000000" font-family="sans-serif" font-size="14" font-weight="bold" lengthAdjust="spacing" textLength="78" x="5066" y="508.5752">converters</text></g><!--cluster loaders--><g id="cluster_loaders"><path d="M4442.5,509.5 L4496.5,509.5 A3.75,3.75 0 0 1 4499,512 L4506,532.6514 L5035.5,532.6514 A2.5,2.5 0 0 1 5038,535.1514 L5038,1015 A2.5,2.5 0 0 1 5035.5,1017.5 L4442.5,1017.5 A2.5,2.5 0 0 1 4440,1015 L4440,512 A2.5,2.5 0 0 1 4442.5,509.5 " fill="none" style="stroke:#000000;stroke-width:1.5;"/><line style="stroke:#000000;stroke-width:1.5;" x1="4440" x2="4506" y1="532.6514" y2="532.6514"/><text fill="#000000" font-family="sans-serif" font-size="14" font-weight="bold" lengthAdjust="spacing" textLength="53" x="4444" y="525.5752">loaders</text></g><!--cluster entities--><g id="cluster_entities"><path d="M1704.5,432.5 L1758.5,432.5 A3.75,3.75 0 0 1 1761,435 L1768,455.6514 L2949.5,455.6514 A2.5,2.5 0 0 1 2952,458.1514 L2952,1208.5 A2.5,2.5 0 0 1 2949.5,1211 L1704.5,1211 A2.5,2.5 0 0 1 1702,1208.5 L1702,435 A2.5,2.5 0 0 1 1704.5,432.5 " fill="none" style="stroke:#000000;stroke-width:1.5;"/><line style="stroke:#000000;stroke-width:1.5;" x1="1702" x2="1768" y1="455.6514" y2="455.6514"/><text fill="#000000" font-family="sans-serif" font-size="14" font-weight="bold" lengthAdjust="spacing" textLength="53" x="1706" y="448.5752">entities</text></g><!--cluster persistence--><g id="cluster_persistence"><path d="M1016.5,441 L1101.5,441 A3.75,3.75 0 0 1 1104,443.5 L1111,464.1514 L1675.5,464.1514 A2.5,2.5 0 0 1 1678,466.6514 L1678,1083.5 A2.5,2.5 0 0 1 1675.5,1086 L1016.5,1086 A2.5,2.5 0 0 1 1014,1083.5 L1014,443.5 A2.5,2.5 0 0 1 1016.5,441 " fill="none" style="stroke:#000000;stroke-width:1.5;"/><line style="stroke:#000000;stroke-width:1.5;" x1="1014" x2="1111" y1="464.1514" y2="464.1514"/><text fill="#000000" font-family="sans-serif" font-size="14" font-weight="bold" lengthAdjust="spacing" textLength="84" x="1018" y="457.0752">persistence</text></g><!--cluster utils--><g id="cluster_utils"><path d="M223.5,484 L254.5,484 A3.75,3.75 0 0 1 257,486.5 L264,507.1514 L987.5,507.1514 A2.5,2.5 0 0 1 990,509.6514 L990,632.5 A2.5,2.5 0 0 1 987.5,635 L223.5,635 A2.5,2.5 0 0 1 221,632.5 L221,486.5 A2.5,2.5 0 0 1 223.5,484 " fill="none" style="stroke:#000000;stroke-width:1.5;"/><line style="stroke:#000000;stroke-width:1.5;" x1="221" x2="264" y1="507.1514" y2="507.1514"/><text fill="#000000" font-family="sans-serif" font-size="14" font-weight="bold" lengthAdjust="spacing" textLength="30" x="225" y="500.0752">utils</text></g><!--cluster javafx--><g id="cluster_javafx"><path d="M4115.5,6 L4158.5,6 A3.75,3.75 0 0 1 4161,8.5 L4168,29.1514 L4706.5,29.1514 A2.5,2.5 0 0 1 4709,31.6514 L4709,239.5 A2.5,2.5 0 0 1 4706.5,242 L4115.5,242 A2.5,2.5 0 0 1 4113,239.5 L4113,8.5 A2.5,2.5 0 0 1 4115.5,6 " fill="none" style="stroke:#000000;stroke-width:1.5;"/><line style="stroke:#000000;stroke-width:1.5;" x1="4113" x2="4168" y1="29.1514" y2="29.1514"/><text fill="#000000" font-family="sans-serif" font-size="14" font-weight="bold" lengthAdjust="spacing" textLength="42" x="4117" y="22.0752">javafx</text></g><!--cluster scene--><g id="cluster_scene"><path d="M4139.5,50 L4183.5,50 A3.75,3.75 0 0 1 4186,52.5 L4193,73.1514 L4336.5,73.1514 A2.5,2.5 0 0 1 4339,75.6514 L4339,215.5 A2.5,2.5 0 0 1 4336.5,218 L4139.5,218 A2.5,2.5 0 0 1 4137,215.5 L4137,52.5 A2.5,2.5 0 0 1 4139.5,50 " fill="none" style="stroke:#000000;stroke-width:1.5;"/><line style="stroke:#000000;stroke-width:1.5;" x1="4137" x2="4193" y1="73.1514" y2="73.1514"/><text fill="#000000" font-family="sans-serif" font-size="14" font-weight="bold" lengthAdjust="spacing" textLength="43" x="4141" y="66.0752">scene</text></g><!--cluster control--><g id="cluster_control"><path d="M4163.5,94 L4214.5,94 A3.75,3.75 0 0 1 4217,96.5 L4224,117.1514 L4312.5,117.1514 A2.5,2.5 0 0 1 4315,119.6514 L4315,191.5 A2.5,2.5 0 0 1 4312.5,194 L4163.5,194 A2.5,2.5 0 0 1 4161,191.5 L4161,96.5 A2.5,2.5 0 0 1 4163.5,94 " fill="none" style="stroke:#000000;stroke-width:1.5;"/><line style="stroke:#000000;stroke-width:1.5;" x1="4161" x2="4224" y1="117.1514" y2="117.1514"/><text fill="#000000" font-family="sans-serif" font-size="14" font-weight="bold" lengthAdjust="spacing" textLength="50" x="4165" y="110.0752">control</text></g><!--cluster util--><g id="cluster_util"><path d="M4523.5,94 L4546.5,94 A3.75,3.75 0 0 1 4549,96.5 L4556,117.1514 L4682.5,117.1514 A2.5,2.5 0 0 1 4685,119.6514 L4685,191.5 A2.5,2.5 0 0 1 4682.5,194 L4523.5,194 A2.5,2.5 0 0 1 4521,191.5 L4521,96.5 A2.5,2.5 0 0 1 4523.5,94 " fill="none" style="stroke:#000000;stroke-width:1.5;"/><line style="stroke:#000000;stroke-width:1.5;" x1="4521" x2="4556" y1="117.1514" y2="117.1514"/><text fill="#000000" font-family="sans-serif" font-size="14" font-weight="bold" lengthAdjust="spacing" textLength="22" x="4525" y="110.0752">util</text></g><!--cluster application--><g id="cluster_application"><path d="M4365.5,94 L4443.5,94 A3.75,3.75 0 0 1 4446,96.5 L4453,117.1514 L4494.5,117.1514 A2.5,2.5 0 0 1 4497,119.6514 L4497,191.5 A2.5,2.5 0 0 1 4494.5,194 L4365.5,194 A2.5,2.5 0 0 1 4363,191.5 L4363,96.5 A2.5,2.5 0 0 1 4365.5,94 " fill="none" style="stroke:#000000;stroke-width:1.5;"/><line style="stroke:#000000;stroke-width:1.5;" x1="4363" x2="4453" y1="117.1514" y2="117.1514"/><text fill="#000000" font-family="sans-serif" font-size="14" font-weight="bold" lengthAdjust="spacing" textLength="77" x="4367" y="110.0752">application</text></g><!--class MainApplication--><g id="elem_MainApplication"><rect codeLine="16" fill="#F1F1F1" height="65.1514" id="MainApplication" rx="2.5" ry="2.5" style="stroke:#181818;stroke-width:0.5;" width="131" x="70.5" y="537"/><ellipse cx="85.5" cy="553" fill="#ADD1B2" rx="11" ry="11" style="stroke:#181818;stroke-width:1.0;"/><path d="M87.5,549.5 Q87.7031,549 87.9375,548.75 Q88.1719,548.5 88.4375,548.5 Q88.9063,548.5 89.2031,548.7813 Q89.5,549.0625 89.5,549.7188 L89.5,551.2813 Q89.5,551.9375 89.2188,552.2188 Q88.9375,552.5 88.5,552.5 Q88.1094,552.5 87.8594,552.3281 Q87.6094,552.1563 87.5,551.7031 Q87.4531,551.3906 87.2813,551.2188 Q86.9688,550.8906 86.4063,550.7031 Q85.8438,550.5 85.2813,550.5 Q84.5781,550.5 83.9844,550.7813 Q83.4063,551.0625 82.9531,551.6875 Q82.5,552.3125 82.5,553.1719 L82.5,554.0938 Q82.5,555.125 83.3438,555.8125 Q84.1875,556.5 85.6875,556.5 Q86.5781,556.5 87.2031,556.2969 Q87.5625,556.1875 87.9688,555.8281 Q88.2344,555.625 88.375,555.5625 Q88.5156,555.5 88.6875,555.5 Q89.0156,555.5 89.25,555.7656 Q89.5,556.0156 89.5,556.375 Q89.5,556.7188 89.1563,557.125 Q88.6563,557.7188 87.8594,558.0469 Q86.8125,558.5 85.5313,558.5 Q84.0313,558.5 82.8281,557.9063 Q81.8594,557.4375 81.1719,556.4219 Q80.5,555.4063 80.5,554.2031 L80.5,553.1094 Q80.5,551.8594 81.0938,550.7656 Q81.7031,549.6719 82.75,549.0938 Q83.8125,548.5 85,548.5 Q85.7188,548.5 86.3438,548.75 Q86.9688,549 87.5,549.5 Z " fill="#000000"/><text fill="#000000" font-family="sans-serif" font-size="14" lengthAdjust="spacing" textLength="99" x="99.5" y="558.4995">MainApplication</text><line style="stroke:#181818;stroke-width:0.5;" x1="71.5" x2="200.5" y1="569" y2="569"/><line style="stroke:#181818;stroke-width:0.5;" x1="71.5" x2="200.5" y1="577" y2="577"/><ellipse cx="81.5" cy="591.0757" fill="#84BE84" rx="3" ry="3" style="stroke:#038048;stroke-width:1.0;"/><text fill="#000000" font-family="sans-serif" font-size="14" lengthAdjust="spacing" textLength="105" x="90.5" y="595.0752">void start(Stage)</text></g><!--class NavigationBarController--><g id="elem_NavigationBarController"><rect codeLine="21" fill="#F1F1F1" height="185.2109" id="NavigationBarController" rx="2.5" ry="2.5" style="stroke:#181818;stroke-width:0.5;" width="253" x="2992.5" y="833.5"/><ellipse cx="3039.75" cy="849.5" fill="#ADD1B2" rx="11" ry="11" style="stroke:#181818;stroke-width:1.0;"/><path d="M3041.75,846 Q3041.9531,845.5 3042.1875,845.25 Q3042.4219,845 3042.6875,845 Q3043.1563,845 3043.4531,845.2813 Q3043.75,845.5625 3043.75,846.2188 L3043.75,847.7813 Q3043.75,848.4375 3043.4688,848.7188 Q3043.1875,849 3042.75,849 Q3042.3594,849 3042.1094,848.8281 Q3041.8594,848.6563 3041.75,848.2031 Q3041.7031,847.8906 3041.5313,847.7188 Q3041.2188,847.3906 3040.6563,847.2031 Q3040.0938,847 3039.5313,847 Q3038.8281,847 3038.2344,847.2813 Q3037.6563,847.5625 3037.2031,848.1875 Q3036.75,848.8125 3036.75,849.6719 L3036.75,850.5938 Q3036.75,851.625 3037.5938,852.3125 Q3038.4375,853 3039.9375,853 Q3040.8281,853 3041.4531,852.7969 Q3041.8125,852.6875 3042.2188,852.3281 Q3042.4844,852.125 3042.625,852.0625 Q3042.7656,852 3042.9375,852 Q3043.2656,852 3043.5,852.2656 Q3043.75,852.5156 3043.75,852.875 Q3043.75,853.2188 3043.4063,853.625 Q3042.9063,854.2188 3042.1094,854.5469 Q3041.0625,855 3039.7813,855 Q3038.2813,855 3037.0781,854.4063 Q3036.1094,853.9375 3035.4219,852.9219 Q3034.75,851.9063 3034.75,850.7031 L3034.75,849.6094 Q3034.75,848.3594 3035.3438,847.2656 Q3035.9531,846.1719 3037,845.5938 Q3038.0625,845 3039.25,845 Q3039.9688,845 3040.5938,845.25 Q3041.2188,845.5 3041.75,846 Z " fill="#000000"/><text fill="#000000" font-family="sans-serif" font-size="14" lengthAdjust="spacing" textLength="150" x="3060.25" y="854.9995">NavigationBarController</text><line style="stroke:#181818;stroke-width:0.5;" x1="2993.5" x2="3244.5" y1="865.5" y2="865.5"/><rect fill="none" height="6" style="stroke:#C82930;stroke-width:1.0;" width="6" x="3000.5" y="876.5757"/><text fill="#000000" font-family="sans-serif" font-size="14" lengthAdjust="spacing" textLength="118" x="3012.5" y="883.5752">Label navBarItem0</text><rect fill="none" height="6" style="stroke:#C82930;stroke-width:1.0;" width="6" x="3000.5" y="893.7271"/><text fill="#000000" font-family="sans-serif" font-size="14" lengthAdjust="spacing" textLength="118" x="3012.5" y="900.7266">Label navBarItem1</text><rect fill="none" height="6" style="stroke:#C82930;stroke-width:1.0;" width="6" x="3000.5" y="910.8784"/><text fill="#000000" font-family="sans-serif" font-size="14" lengthAdjust="spacing" textLength="118" x="3012.5" y="917.8779">Label navBarItem2</text><rect fill="none" height="6" style="stroke:#C82930;stroke-width:1.0;" width="6" x="3000.5" y="928.0298"/><text fill="#000000" font-family="sans-serif" font-size="14" lengthAdjust="spacing" textLength="118" x="3012.5" y="935.0293">Label navBarItem3</text><rect fill="none" height="6" style="stroke:#C82930;stroke-width:1.0;" width="6" x="3000.5" y="945.1812"/><text fill="#000000" font-family="sans-serif" font-size="14" lengthAdjust="spacing" textLength="118" x="3012.5" y="952.1807">Label navBarItem4</text><line style="stroke:#181818;stroke-width:0.5;" x1="2993.5" x2="3244.5" y1="959.2568" y2="959.2568"/><ellipse cx="3003.5" cy="973.3325" fill="#84BE84" rx="3" ry="3" style="stroke:#038048;stroke-width:1.0;"/><text fill="#000000" font-family="sans-serif" font-size="14" lengthAdjust="spacing" textLength="89" x="3012.5" y="977.332">void initialize()</text><ellipse cx="3003.5" cy="990.4839" fill="#84BE84" rx="3" ry="3" style="stroke:#038048;stroke-width:1.0;"/><text fill="#000000" font-family="sans-serif" font-size="14" lengthAdjust="spacing" textLength="192" x="3012.5" y="994.4834">void disableNavigationItem(int)</text><rect fill="#F24D5C" height="6" style="stroke:#C82930;stroke-width:1.0;" width="6" x="3000.5" y="1004.6353"/><text fill="#000000" font-family="sans-serif" font-size="14" lengthAdjust="spacing" textLength="227" x="3012.5" y="1011.6348">void handleNavigation(MouseEvent)</text></g><!--class BasicController--><g id="elem_BasicController"><rect codeLine="73" fill="#F1F1F1" height="270.9678" id="BasicController" rx="2.5" ry="2.5" style="stroke:#181818;stroke-width:0.5;" width="486" x="3580" y="434"/><ellipse cx="3770.75" cy="450" fill="#ADD1B2" rx="11" ry="11" style="stroke:#181818;stroke-width:1.0;"/><path d="M3772.75,446.5 Q3772.9531,446 3773.1875,445.75 Q3773.4219,445.5 3773.6875,445.5 Q3774.1563,445.5 3774.4531,445.7813 Q3774.75,446.0625 3774.75,446.7188 L3774.75,448.2813 Q3774.75,448.9375 3774.4688,449.2188 Q3774.1875,449.5 3773.75,449.5 Q3773.3594,449.5 3773.1094,449.3281 Q3772.8594,449.1563 3772.75,448.7031 Q3772.7031,448.3906 3772.5313,448.2188 Q3772.2188,447.8906 3771.6563,447.7031 Q3771.0938,447.5 3770.5313,447.5 Q3769.8281,447.5 3769.2344,447.7813 Q3768.6563,448.0625 3768.2031,448.6875 Q3767.75,449.3125 3767.75,450.1719 L3767.75,451.0938 Q3767.75,452.125 3768.5938,452.8125 Q3769.4375,453.5 3770.9375,453.5 Q3771.8281,453.5 3772.4531,453.2969 Q3772.8125,453.1875 3773.2188,452.8281 Q3773.4844,452.625 3773.625,452.5625 Q3773.7656,452.5 3773.9375,452.5 Q3774.2656,452.5 3774.5,452.7656 Q3774.75,453.0156 3774.75,453.375 Q3774.75,453.7188 3774.4063,454.125 Q3773.9063,454.7188 3773.1094,455.0469 Q3772.0625,455.5 3770.7813,455.5 Q3769.2813,455.5 3768.0781,454.9063 Q3767.1094,454.4375 3766.4219,453.4219 Q3765.75,452.4063 3765.75,451.2031 L3765.75,450.1094 Q3765.75,448.8594 3766.3438,447.7656 Q3766.9531,446.6719 3768,446.0938 Q3769.0625,445.5 3770.25,445.5 Q3770.9688,445.5 3771.5938,445.75 Q3772.2188,446 3772.75,446.5 Z " fill="#000000"/><text fill="#000000" font-family="sans-serif" font-size="14" lengthAdjust="spacing" textLength="96" x="3791.25" y="455.4995">BasicController</text><line style="stroke:#181818;stroke-width:0.5;" x1="3581" x2="4065" y1="466" y2="466"/><ellipse cx="3591" cy="480.0757" fill="none" rx="3" ry="3" style="stroke:#038048;stroke-width:1.0;"/><text fill="#000000" font-family="sans-serif" font-size="14" lengthAdjust="spacing" text-decoration="underline" textLength="68" x="3600" y="484.0752">Logger log</text><polygon fill="none" points="3591,492.2271,3595,496.2271,3591,500.2271,3587,496.2271" style="stroke:#B38D22;stroke-width:1.0;"/><text fill="#000000" font-family="sans-serif" font-size="14" lengthAdjust="spacing" textLength="130" x="3600" y="501.2266">Parent imageHeader</text><polygon fill="none" points="3591,509.3784,3595,513.3784,3591,517.3784,3587,513.3784" style="stroke:#B38D22;stroke-width:1.0;"/><text fill="#000000" font-family="sans-serif" font-size="14" lengthAdjust="spacing" textLength="296" x="3600" y="518.3779">ImageHeaderController imageHeaderController</text><rect fill="none" height="6" style="stroke:#C82930;stroke-width:1.0;" width="6" x="3588" y="528.5298"/><text fill="#000000" font-family="sans-serif" font-size="14" lengthAdjust="spacing" textLength="133" x="3600" y="535.5293">Parent navigationBar</text><polygon fill="none" points="3591,543.6812,3595,547.6812,3591,551.6812,3587,547.6812" style="stroke:#B38D22;stroke-width:1.0;"/><text fill="#000000" font-family="sans-serif" font-size="14" lengthAdjust="spacing" textLength="303" x="3600" y="552.6807">NavigationBarController navigationBarController</text><polygon fill="none" points="3591,560.8325,3595,564.8325,3591,568.8325,3587,564.8325" style="stroke:#B38D22;stroke-width:1.0;"/><text fill="#000000" font-family="sans-serif" font-size="14" lengthAdjust="spacing" textLength="337" x="3600" y="569.832">ComponentContentLoader componentContentLoader</text><line style="stroke:#181818;stroke-width:0.5;" x1="3581" x2="4065" y1="576.9082" y2="576.9082"/><ellipse cx="3591" cy="590.9839" fill="#84BE84" rx="3" ry="3" style="stroke:#038048;stroke-width:1.0;"/><text fill="#000000" font-family="sans-serif" font-size="14" lengthAdjust="spacing" textLength="105" x="3600" y="594.9834">void start(Stage)</text><rect fill="#F24D5C" height="6" style="stroke:#C82930;stroke-width:1.0;" width="6" x="3588" y="605.1353"/><text fill="#000000" font-family="sans-serif" font-size="14" lengthAdjust="spacing" textLength="89" x="3600" y="612.1348">void initialize()</text><polygon fill="#FFFF44" points="3591,620.2866,3595,624.2866,3591,628.2866,3587,624.2866" style="stroke:#B38D22;stroke-width:1.0;"/><text fill="#000000" font-family="sans-serif" font-size="14" lengthAdjust="spacing" textLength="175" x="3600" y="629.2861">void navigate(Scene,String)</text><polygon fill="#FFFF44" points="3591,637.438,3595,641.438,3591,645.438,3587,641.438" style="stroke:#B38D22;stroke-width:1.0;"/><text fill="#000000" font-family="sans-serif" font-size="14" lengthAdjust="spacing" textLength="460" x="3600" y="646.4375">Callback&lt;DatePicker,DateCell&gt; getDayCellFactory(LocalDate,LocalDate)</text><polygon fill="#FFFF44" points="3591,654.5894,3595,658.5894,3591,662.5894,3587,658.5894" style="stroke:#B38D22;stroke-width:1.0;"/><text fill="#000000" font-family="sans-serif" font-size="14" lengthAdjust="spacing" textLength="143" x="3600" y="663.5889">void setLocale(Locale)</text><polygon fill="#FFFF44" points="3591,671.7407,3595,675.7407,3591,679.7407,3587,675.7407" style="stroke:#B38D22;stroke-width:1.0;"/><text fill="#000000" font-family="sans-serif" font-size="14" lengthAdjust="spacing" textLength="334" x="3600" y="680.7402">NavigationBarController getNavigationBarController()</text><polygon fill="#FFFF44" points="3591,688.8921,3595,692.8921,3591,696.8921,3587,692.8921" style="stroke:#B38D22;stroke-width:1.0;"/><text fill="#000000" font-family="sans-serif" font-size="14" lengthAdjust="spacing" textLength="326" x="3600" y="697.8916">ImageHeaderController getImageHeaderController()</text></g><!--class OverviewCalenderController--><g id="elem_OverviewCalenderController"><rect codeLine="94" fill="#F1F1F1" height="202.3623" id="OverviewCalenderController" rx="2.5" ry="2.5" style="stroke:#181818;stroke-width:0.5;" width="336" x="3281" y="825"/><ellipse cx="3355.75" cy="841" fill="#ADD1B2" rx="11" ry="11" style="stroke:#181818;stroke-width:1.0;"/><path d="M3357.75,837.5 Q3357.9531,837 3358.1875,836.75 Q3358.4219,836.5 3358.6875,836.5 Q3359.1563,836.5 3359.4531,836.7813 Q3359.75,837.0625 3359.75,837.7188 L3359.75,839.2813 Q3359.75,839.9375 3359.4688,840.2188 Q3359.1875,840.5 3358.75,840.5 Q3358.3594,840.5 3358.1094,840.3281 Q3357.8594,840.1563 3357.75,839.7031 Q3357.7031,839.3906 3357.5313,839.2188 Q3357.2188,838.8906 3356.6563,838.7031 Q3356.0938,838.5 3355.5313,838.5 Q3354.8281,838.5 3354.2344,838.7813 Q3353.6563,839.0625 3353.2031,839.6875 Q3352.75,840.3125 3352.75,841.1719 L3352.75,842.0938 Q3352.75,843.125 3353.5938,843.8125 Q3354.4375,844.5 3355.9375,844.5 Q3356.8281,844.5 3357.4531,844.2969 Q3357.8125,844.1875 3358.2188,843.8281 Q3358.4844,843.625 3358.625,843.5625 Q3358.7656,843.5 3358.9375,843.5 Q3359.2656,843.5 3359.5,843.7656 Q3359.75,844.0156 3359.75,844.375 Q3359.75,844.7188 3359.4063,845.125 Q3358.9063,845.7188 3358.1094,846.0469 Q3357.0625,846.5 3355.7813,846.5 Q3354.2813,846.5 3353.0781,845.9063 Q3352.1094,845.4375 3351.4219,844.4219 Q3350.75,843.4063 3350.75,842.2031 L3350.75,841.1094 Q3350.75,839.8594 3351.3438,838.7656 Q3351.9531,837.6719 3353,837.0938 Q3354.0625,836.5 3355.25,836.5 Q3355.9688,836.5 3356.5938,836.75 Q3357.2188,837 3357.75,837.5 Z " fill="#000000"/><text fill="#000000" font-family="sans-serif" font-size="14" lengthAdjust="spacing" textLength="178" x="3376.25" y="846.4995">OverviewCalenderController</text><line style="stroke:#181818;stroke-width:0.5;" x1="3282" x2="3616" y1="857" y2="857"/><rect fill="none" height="6" style="stroke:#C82930;stroke-width:1.0;" width="6" x="3289" y="868.0757"/><text fill="#000000" font-family="sans-serif" font-size="14" lengthAdjust="spacing" textLength="177" x="3301" y="875.0752">Button createBookingButton</text><rect fill="none" height="6" style="stroke:#C82930;stroke-width:1.0;" width="6" x="3289" y="885.2271"/><text fill="#000000" font-family="sans-serif" font-size="14" lengthAdjust="spacing" textLength="170" x="3301" y="892.2266">DatePicker fromDatePicker</text><rect fill="none" height="6" style="stroke:#C82930;stroke-width:1.0;" width="6" x="3289" y="902.3784"/><text fill="#000000" font-family="sans-serif" font-size="14" lengthAdjust="spacing" textLength="148" x="3301" y="909.3779">LocalDate startMinDate</text><rect fill="none" height="6" style="stroke:#C82930;stroke-width:1.0;" width="6" x="3289" y="919.5298"/><text fill="#000000" font-family="sans-serif" font-size="14" lengthAdjust="spacing" textLength="151" x="3301" y="926.5293">LocalDate startMaxDate</text><rect fill="none" height="6" style="stroke:#C82930;stroke-width:1.0;" width="6" x="3289" y="936.6812"/><text fill="#000000" font-family="sans-serif" font-size="14" lengthAdjust="spacing" textLength="154" x="3301" y="943.6807">DatePicker toDatePicker</text><rect fill="none" height="6" style="stroke:#C82930;stroke-width:1.0;" width="6" x="3289" y="953.8325"/><text fill="#000000" font-family="sans-serif" font-size="14" lengthAdjust="spacing" textLength="144" x="3301" y="960.832">LocalDate endMinDate</text><rect fill="none" height="6" style="stroke:#C82930;stroke-width:1.0;" width="6" x="3289" y="970.9839"/><text fill="#000000" font-family="sans-serif" font-size="14" lengthAdjust="spacing" textLength="147" x="3301" y="977.9834">LocalDate endMaxDate</text><line style="stroke:#181818;stroke-width:0.5;" x1="3282" x2="3616" y1="985.0596" y2="985.0596"/><ellipse cx="3292" cy="999.1353" fill="#84BE84" rx="3" ry="3" style="stroke:#038048;stroke-width:1.0;"/><text fill="#000000" font-family="sans-serif" font-size="14" lengthAdjust="spacing" textLength="89" x="3301" y="1003.1348">void initialize()</text><rect fill="#F24D5C" height="6" style="stroke:#C82930;stroke-width:1.0;" width="6" x="3289" y="1013.2866"/><text fill="#000000" font-family="sans-serif" font-size="14" lengthAdjust="spacing" textLength="310" x="3301" y="1020.2861">void handleOnCreateButtonClicked(MouseEvent)</text></g><!--class ImageHeaderController--><g id="elem_ImageHeaderController"><rect codeLine="114" fill="#F1F1F1" height="168.0596" id="ImageHeaderController" rx="2.5" ry="2.5" style="stroke:#181818;stroke-width:0.5;" width="341" x="3652.5" y="842"/><ellipse cx="3745.75" cy="858" fill="#ADD1B2" rx="11" ry="11" style="stroke:#181818;stroke-width:1.0;"/><path d="M3747.75,854.5 Q3747.9531,854 3748.1875,853.75 Q3748.4219,853.5 3748.6875,853.5 Q3749.1563,853.5 3749.4531,853.7813 Q3749.75,854.0625 3749.75,854.7188 L3749.75,856.2813 Q3749.75,856.9375 3749.4688,857.2188 Q3749.1875,857.5 3748.75,857.5 Q3748.3594,857.5 3748.1094,857.3281 Q3747.8594,857.1563 3747.75,856.7031 Q3747.7031,856.3906 3747.5313,856.2188 Q3747.2188,855.8906 3746.6563,855.7031 Q3746.0938,855.5 3745.5313,855.5 Q3744.8281,855.5 3744.2344,855.7813 Q3743.6563,856.0625 3743.2031,856.6875 Q3742.75,857.3125 3742.75,858.1719 L3742.75,859.0938 Q3742.75,860.125 3743.5938,860.8125 Q3744.4375,861.5 3745.9375,861.5 Q3746.8281,861.5 3747.4531,861.2969 Q3747.8125,861.1875 3748.2188,860.8281 Q3748.4844,860.625 3748.625,860.5625 Q3748.7656,860.5 3748.9375,860.5 Q3749.2656,860.5 3749.5,860.7656 Q3749.75,861.0156 3749.75,861.375 Q3749.75,861.7188 3749.4063,862.125 Q3748.9063,862.7188 3748.1094,863.0469 Q3747.0625,863.5 3745.7813,863.5 Q3744.2813,863.5 3743.0781,862.9063 Q3742.1094,862.4375 3741.4219,861.4219 Q3740.75,860.4063 3740.75,859.2031 L3740.75,858.1094 Q3740.75,856.8594 3741.3438,855.7656 Q3741.9531,854.6719 3743,854.0938 Q3744.0625,853.5 3745.25,853.5 Q3745.9688,853.5 3746.5938,853.75 Q3747.2188,854 3747.75,854.5 Z " fill="#000000"/><text fill="#000000" font-family="sans-serif" font-size="14" lengthAdjust="spacing" textLength="146" x="3766.25" y="863.4995">ImageHeaderController</text><line style="stroke:#181818;stroke-width:0.5;" x1="3653.5" x2="3992.5" y1="874" y2="874"/><rect fill="none" height="6" style="stroke:#C82930;stroke-width:1.0;" width="6" x="3660.5" y="885.0757"/><text fill="#000000" font-family="sans-serif" font-size="14" lengthAdjust="spacing" textLength="134" x="3672.5" y="892.0752">Button germanButton</text><rect fill="none" height="6" style="stroke:#C82930;stroke-width:1.0;" width="6" x="3660.5" y="902.2271"/><text fill="#000000" font-family="sans-serif" font-size="14" lengthAdjust="spacing" textLength="131" x="3672.5" y="909.2266">Button englishButton</text><rect fill="none" height="6" style="stroke:#C82930;stroke-width:1.0;" width="6" x="3660.5" y="919.3784"/><text fill="#000000" font-family="sans-serif" font-size="14" lengthAdjust="spacing" textLength="142" x="3672.5" y="926.3779">String sourceViewPath</text><line style="stroke:#181818;stroke-width:0.5;" x1="3653.5" x2="3992.5" y1="933.4541" y2="933.4541"/><ellipse cx="3663.5" cy="947.5298" fill="#84BE84" rx="3" ry="3" style="stroke:#038048;stroke-width:1.0;"/><text fill="#000000" font-family="sans-serif" font-size="14" lengthAdjust="spacing" textLength="89" x="3672.5" y="951.5293">void initialize()</text><ellipse cx="3663.5" cy="964.6812" fill="#84BE84" rx="3" ry="3" style="stroke:#038048;stroke-width:1.0;"/><text fill="#000000" font-family="sans-serif" font-size="14" lengthAdjust="spacing" textLength="315" x="3672.5" y="968.6807">void handleOnGermanButtonClicked(ActionEvent)</text><ellipse cx="3663.5" cy="981.8325" fill="#84BE84" rx="3" ry="3" style="stroke:#038048;stroke-width:1.0;"/><text fill="#000000" font-family="sans-serif" font-size="14" lengthAdjust="spacing" textLength="310" x="3672.5" y="985.832">void handleOnEnglishButtonClicked(ActionEvent)</text><ellipse cx="3663.5" cy="998.9839" fill="#84BE84" rx="3" ry="3" style="stroke:#038048;stroke-width:1.0;"/><text fill="#000000" font-family="sans-serif" font-size="14" lengthAdjust="spacing" textLength="199" x="3672.5" y="1002.9834">void setSourceViewPath(String)</text></g><!--class BookingCreationController--><g id="elem_BookingCreationController"><rect codeLine="125" fill="#F1F1F1" height="322.4219" id="BookingCreationController" rx="2.5" ry="2.5" style="stroke:#181818;stroke-width:0.5;" width="392" x="4029" y="765"/><ellipse cx="4137.25" cy="781" fill="#ADD1B2" rx="11" ry="11" style="stroke:#181818;stroke-width:1.0;"/><path d="M4139.25,777.5 Q4139.4531,777 4139.6875,776.75 Q4139.9219,776.5 4140.1875,776.5 Q4140.6563,776.5 4140.9531,776.7813 Q4141.25,777.0625 4141.25,777.7188 L4141.25,779.2813 Q4141.25,779.9375 4140.9688,780.2188 Q4140.6875,780.5 4140.25,780.5 Q4139.8594,780.5 4139.6094,780.3281 Q4139.3594,780.1563 4139.25,779.7031 Q4139.2031,779.3906 4139.0313,779.2188 Q4138.7188,778.8906 4138.1563,778.7031 Q4137.5938,778.5 4137.0313,778.5 Q4136.3281,778.5 4135.7344,778.7813 Q4135.1563,779.0625 4134.7031,779.6875 Q4134.25,780.3125 4134.25,781.1719 L4134.25,782.0938 Q4134.25,783.125 4135.0938,783.8125 Q4135.9375,784.5 4137.4375,784.5 Q4138.3281,784.5 4138.9531,784.2969 Q4139.3125,784.1875 4139.7188,783.8281 Q4139.9844,783.625 4140.125,783.5625 Q4140.2656,783.5 4140.4375,783.5 Q4140.7656,783.5 4141,783.7656 Q4141.25,784.0156 4141.25,784.375 Q4141.25,784.7188 4140.9063,785.125 Q4140.4063,785.7188 4139.6094,786.0469 Q4138.5625,786.5 4137.2813,786.5 Q4135.7813,786.5 4134.5781,785.9063 Q4133.6094,785.4375 4132.9219,784.4219 Q4132.25,783.4063 4132.25,782.2031 L4132.25,781.1094 Q4132.25,779.8594 4132.8438,778.7656 Q4133.4531,777.6719 4134.5,777.0938 Q4135.5625,776.5 4136.75,776.5 Q4137.4688,776.5 4138.0938,776.75 Q4138.7188,777 4139.25,777.5 Z " fill="#000000"/><text fill="#000000" font-family="sans-serif" font-size="14" lengthAdjust="spacing" textLength="167" x="4157.75" y="786.4995">BookingCreationController</text><line style="stroke:#181818;stroke-width:0.5;" x1="4030" x2="4420" y1="797" y2="797"/><polygon fill="none" points="4040,807.0757,4036,813.0757,4044,813.0757" style="stroke:#1963A0;stroke-width:1.0;"/><text fill="#000000" font-family="sans-serif" font-size="14" lengthAdjust="spacing" textLength="180" x="4049" y="815.0752">ResourceBundle langBundle</text><polygon fill="none" points="4040,823.2271,4044,827.2271,4040,831.2271,4036,827.2271" style="stroke:#B38D22;stroke-width:1.0;"/><text fill="#000000" font-family="sans-serif" font-size="14" lengthAdjust="spacing" textLength="259" x="4049" y="832.2266">BookingDataService bookingDataService</text><rect fill="none" height="6" style="stroke:#C82930;stroke-width:1.0;" width="6" x="4037" y="842.3784"/><text fill="#000000" font-family="sans-serif" font-size="14" lengthAdjust="spacing" textLength="170" x="4049" y="849.3779">DatePicker fromDatePicker</text><rect fill="none" height="6" style="stroke:#C82930;stroke-width:1.0;" width="6" x="4037" y="859.5298"/><text fill="#000000" font-family="sans-serif" font-size="14" lengthAdjust="spacing" textLength="154" x="4049" y="866.5293">DatePicker toDatePicker</text><rect fill="none" height="6" style="stroke:#C82930;stroke-width:1.0;" width="6" x="4037" y="876.6812"/><text fill="#000000" font-family="sans-serif" font-size="14" lengthAdjust="spacing" textLength="294" x="4049" y="883.6807">ChoiceBox&lt;RoomTypeEntity&gt; roomTypePicker</text><rect fill="none" height="6" style="stroke:#C82930;stroke-width:1.0;" width="6" x="4037" y="893.8325"/><text fill="#000000" font-family="sans-serif" font-size="14" lengthAdjust="spacing" textLength="279" x="4049" y="900.832">ChoiceBox&lt;RoomEntity&gt; roomNumberPicker</text><rect fill="none" height="6" style="stroke:#C82930;stroke-width:1.0;" width="6" x="4037" y="910.9839"/><text fill="#000000" font-family="sans-serif" font-size="14" lengthAdjust="spacing" textLength="330" x="4049" y="917.9834">ChoiceBox&lt;CateringTypeEntity&gt; cateringTypePicker</text><rect fill="none" height="6" style="stroke:#C82930;stroke-width:1.0;" width="6" x="4037" y="928.1353"/><text fill="#000000" font-family="sans-serif" font-size="14" lengthAdjust="spacing" textLength="190" x="4049" y="935.1348">Button bookingCreationButton</text><line style="stroke:#181818;stroke-width:0.5;" x1="4030" x2="4420" y1="942.2109" y2="942.2109"/><ellipse cx="4040" cy="956.2866" fill="#84BE84" rx="3" ry="3" style="stroke:#038048;stroke-width:1.0;"/><text fill="#000000" font-family="sans-serif" font-size="14" lengthAdjust="spacing" textLength="89" x="4049" y="960.2861">void initialize()</text><rect fill="#F24D5C" height="6" style="stroke:#C82930;stroke-width:1.0;" width="6" x="4037" y="970.438"/><text fill="#000000" font-family="sans-serif" font-size="14" lengthAdjust="spacing" textLength="179" x="4049" y="977.4375">void loadValuesIntoPickers()</text><rect fill="#F24D5C" height="6" style="stroke:#C82930;stroke-width:1.0;" width="6" x="4037" y="987.5894"/><text fill="#000000" font-family="sans-serif" font-size="14" lengthAdjust="spacing" textLength="151" x="4049" y="994.5889">void setupDatePickers()</text><rect fill="#F24D5C" height="6" style="stroke:#C82930;stroke-width:1.0;" width="6" x="4037" y="1004.7407"/><text fill="#000000" font-family="sans-serif" font-size="14" lengthAdjust="spacing" textLength="186" x="4049" y="1011.7402">void setTextFieldFormatters()</text><rect fill="#F24D5C" height="6" style="stroke:#C82930;stroke-width:1.0;" width="6" x="4037" y="1021.8921"/><text fill="#000000" font-family="sans-serif" font-size="14" lengthAdjust="spacing" textLength="196" x="4049" y="1028.8916">void setChoiceBoxConverters()</text><rect fill="#F24D5C" height="6" style="stroke:#C82930;stroke-width:1.0;" width="6" x="4037" y="1039.0435"/><text fill="#000000" font-family="sans-serif" font-size="14" lengthAdjust="spacing" textLength="366" x="4049" y="1046.043">boolean checkNumberOfGuestsValidity(int,int,RoomEntity)</text><rect fill="#F24D5C" height="6" style="stroke:#C82930;stroke-width:1.0;" width="6" x="4037" y="1056.1948"/><text fill="#000000" font-family="sans-serif" font-size="14" lengthAdjust="spacing" textLength="347" x="4049" y="1063.1943">boolean checkInputDatesValidity(LocalDate,LocalDate)</text><rect fill="#F24D5C" height="6" style="stroke:#C82930;stroke-width:1.0;" width="6" x="4037" y="1073.3462"/><text fill="#000000" font-family="sans-serif" font-size="14" lengthAdjust="spacing" textLength="233" x="4049" y="1080.3457">boolean checkBirthdayValidity(int,int)</text></g><!--class RoomTypeConverter--><g id="elem_RoomTypeConverter"><rect codeLine="1" fill="#F1F1F1" height="82.3027" id="RoomTypeConverter" rx="2.5" ry="2.5" style="stroke:#181818;stroke-width:0.5;" width="246" x="5626" y="528.5"/><ellipse cx="5678.75" cy="544.5" fill="#ADD1B2" rx="11" ry="11" style="stroke:#181818;stroke-width:1.0;"/><path d="M5680.75,541 Q5680.9531,540.5 5681.1875,540.25 Q5681.4219,540 5681.6875,540 Q5682.1563,540 5682.4531,540.2813 Q5682.75,540.5625 5682.75,541.2188 L5682.75,542.7813 Q5682.75,543.4375 5682.4688,543.7188 Q5682.1875,544 5681.75,544 Q5681.3594,544 5681.1094,543.8281 Q5680.8594,543.6563 5680.75,543.2031 Q5680.7031,542.8906 5680.5313,542.7188 Q5680.2188,542.3906 5679.6563,542.2031 Q5679.0938,542 5678.5313,542 Q5677.8281,542 5677.2344,542.2813 Q5676.6563,542.5625 5676.2031,543.1875 Q5675.75,543.8125 5675.75,544.6719 L5675.75,545.5938 Q5675.75,546.625 5676.5938,547.3125 Q5677.4375,548 5678.9375,548 Q5679.8281,548 5680.4531,547.7969 Q5680.8125,547.6875 5681.2188,547.3281 Q5681.4844,547.125 5681.625,547.0625 Q5681.7656,547 5681.9375,547 Q5682.2656,547 5682.5,547.2656 Q5682.75,547.5156 5682.75,547.875 Q5682.75,548.2188 5682.4063,548.625 Q5681.9063,549.2188 5681.1094,549.5469 Q5680.0625,550 5678.7813,550 Q5677.2813,550 5676.0781,549.4063 Q5675.1094,548.9375 5674.4219,547.9219 Q5673.75,546.9063 5673.75,545.7031 L5673.75,544.6094 Q5673.75,543.3594 5674.3438,542.2656 Q5674.9531,541.1719 5676,540.5938 Q5677.0625,540 5678.25,540 Q5678.9688,540 5679.5938,540.25 Q5680.2188,540.5 5680.75,541 Z " fill="#000000"/><text fill="#000000" font-family="sans-serif" font-size="14" lengthAdjust="spacing" textLength="132" x="5699.25" y="549.9995">RoomTypeConverter</text><line style="stroke:#181818;stroke-width:0.5;" x1="5627" x2="5871" y1="560.5" y2="560.5"/><line style="stroke:#181818;stroke-width:0.5;" x1="5627" x2="5871" y1="568.5" y2="568.5"/><ellipse cx="5637" cy="582.5757" fill="#84BE84" rx="3" ry="3" style="stroke:#038048;stroke-width:1.0;"/><text fill="#000000" font-family="sans-serif" font-size="14" lengthAdjust="spacing" textLength="204" x="5646" y="586.5752">String toString(RoomTypeEntity)</text><ellipse cx="5637" cy="599.7271" fill="#84BE84" rx="3" ry="3" style="stroke:#038048;stroke-width:1.0;"/><text fill="#000000" font-family="sans-serif" font-size="14" lengthAdjust="spacing" textLength="220" x="5646" y="603.7266">RoomTypeEntity fromString(String)</text></g><!--class RoomEntityConverter--><g id="elem_RoomEntityConverter"><rect codeLine="58" fill="#F1F1F1" height="82.3027" id="RoomEntityConverter" rx="2.5" ry="2.5" style="stroke:#181818;stroke-width:0.5;" width="214" x="5377" y="528.5"/><ellipse cx="5413.15" cy="544.5" fill="#ADD1B2" rx="11" ry="11" style="stroke:#181818;stroke-width:1.0;"/><path d="M5415.15,541 Q5415.3531,540.5 5415.5875,540.25 Q5415.8219,540 5416.0875,540 Q5416.5563,540 5416.8531,540.2813 Q5417.15,540.5625 5417.15,541.2188 L5417.15,542.7813 Q5417.15,543.4375 5416.8688,543.7188 Q5416.5875,544 5416.15,544 Q5415.7594,544 5415.5094,543.8281 Q5415.2594,543.6563 5415.15,543.2031 Q5415.1031,542.8906 5414.9313,542.7188 Q5414.6188,542.3906 5414.0563,542.2031 Q5413.4938,542 5412.9313,542 Q5412.2281,542 5411.6344,542.2813 Q5411.0563,542.5625 5410.6031,543.1875 Q5410.15,543.8125 5410.15,544.6719 L5410.15,545.5938 Q5410.15,546.625 5410.9938,547.3125 Q5411.8375,548 5413.3375,548 Q5414.2281,548 5414.8531,547.7969 Q5415.2125,547.6875 5415.6188,547.3281 Q5415.8844,547.125 5416.025,547.0625 Q5416.1656,547 5416.3375,547 Q5416.6656,547 5416.9,547.2656 Q5417.15,547.5156 5417.15,547.875 Q5417.15,548.2188 5416.8063,548.625 Q5416.3063,549.2188 5415.5094,549.5469 Q5414.4625,550 5413.1813,550 Q5411.6813,550 5410.4781,549.4063 Q5409.5094,548.9375 5408.8219,547.9219 Q5408.15,546.9063 5408.15,545.7031 L5408.15,544.6094 Q5408.15,543.3594 5408.7438,542.2656 Q5409.3531,541.1719 5410.4,540.5938 Q5411.4625,540 5412.65,540 Q5413.3688,540 5413.9938,540.25 Q5414.6188,540.5 5415.15,541 Z " fill="#000000"/><text fill="#000000" font-family="sans-serif" font-size="14" lengthAdjust="spacing" textLength="135" x="5431.85" y="549.9995">RoomEntityConverter</text><line style="stroke:#181818;stroke-width:0.5;" x1="5378" x2="5590" y1="560.5" y2="560.5"/><line style="stroke:#181818;stroke-width:0.5;" x1="5378" x2="5590" y1="568.5" y2="568.5"/><ellipse cx="5388" cy="582.5757" fill="#84BE84" rx="3" ry="3" style="stroke:#038048;stroke-width:1.0;"/><text fill="#000000" font-family="sans-serif" font-size="14" lengthAdjust="spacing" textLength="172" x="5397" y="586.5752">String toString(RoomEntity)</text><ellipse cx="5388" cy="599.7271" fill="#84BE84" rx="3" ry="3" style="stroke:#038048;stroke-width:1.0;"/><text fill="#000000" font-family="sans-serif" font-size="14" lengthAdjust="spacing" textLength="188" x="5397" y="603.7266">RoomEntity fromString(String)</text></g><!--class CateringTypeEntityConverter--><g id="elem_CateringTypeEntityConverter"><rect codeLine="88" fill="#F1F1F1" height="82.3027" id="CateringTypeEntityConverter" rx="2.5" ry="2.5" style="stroke:#181818;stroke-width:0.5;" width="263" x="5078.5" y="528.5"/><ellipse cx="5114.65" cy="544.5" fill="#ADD1B2" rx="11" ry="11" style="stroke:#181818;stroke-width:1.0;"/><path d="M5116.65,541 Q5116.8531,540.5 5117.0875,540.25 Q5117.3219,540 5117.5875,540 Q5118.0563,540 5118.3531,540.2813 Q5118.65,540.5625 5118.65,541.2188 L5118.65,542.7813 Q5118.65,543.4375 5118.3688,543.7188 Q5118.0875,544 5117.65,544 Q5117.2594,544 5117.0094,543.8281 Q5116.7594,543.6563 5116.65,543.2031 Q5116.6031,542.8906 5116.4313,542.7188 Q5116.1188,542.3906 5115.5563,542.2031 Q5114.9938,542 5114.4313,542 Q5113.7281,542 5113.1344,542.2813 Q5112.5563,542.5625 5112.1031,543.1875 Q5111.65,543.8125 5111.65,544.6719 L5111.65,545.5938 Q5111.65,546.625 5112.4938,547.3125 Q5113.3375,548 5114.8375,548 Q5115.7281,548 5116.3531,547.7969 Q5116.7125,547.6875 5117.1188,547.3281 Q5117.3844,547.125 5117.525,547.0625 Q5117.6656,547 5117.8375,547 Q5118.1656,547 5118.4,547.2656 Q5118.65,547.5156 5118.65,547.875 Q5118.65,548.2188 5118.3063,548.625 Q5117.8063,549.2188 5117.0094,549.5469 Q5115.9625,550 5114.6813,550 Q5113.1813,550 5111.9781,549.4063 Q5111.0094,548.9375 5110.3219,547.9219 Q5109.65,546.9063 5109.65,545.7031 L5109.65,544.6094 Q5109.65,543.3594 5110.2438,542.2656 Q5110.8531,541.1719 5111.9,540.5938 Q5112.9625,540 5114.15,540 Q5114.8688,540 5115.4938,540.25 Q5116.1188,540.5 5116.65,541 Z " fill="#000000"/><text fill="#000000" font-family="sans-serif" font-size="14" lengthAdjust="spacing" textLength="184" x="5133.35" y="549.9995">CateringTypeEntityConverter</text><line style="stroke:#181818;stroke-width:0.5;" x1="5079.5" x2="5340.5" y1="560.5" y2="560.5"/><line style="stroke:#181818;stroke-width:0.5;" x1="5079.5" x2="5340.5" y1="568.5" y2="568.5"/><ellipse cx="5089.5" cy="582.5757" fill="#84BE84" rx="3" ry="3" style="stroke:#038048;stroke-width:1.0;"/><text fill="#000000" font-family="sans-serif" font-size="14" lengthAdjust="spacing" textLength="221" x="5098.5" y="586.5752">String toString(CateringTypeEntity)</text><ellipse cx="5089.5" cy="599.7271" fill="#84BE84" rx="3" ry="3" style="stroke:#038048;stroke-width:1.0;"/><text fill="#000000" font-family="sans-serif" font-size="14" lengthAdjust="spacing" textLength="237" x="5098.5" y="603.7266">CateringTypeEntity fromString(String)</text></g><!--class ComponentContentLoader--><g id="elem_ComponentContentLoader"><rect codeLine="19" fill="#F1F1F1" height="48" id="ComponentContentLoader" rx="2.5" ry="2.5" style="stroke:#181818;stroke-width:0.5;" width="200" x="4639" y="545.5"/><ellipse cx="4654" cy="561.5" fill="#B4A7E5" rx="11" ry="11" style="stroke:#181818;stroke-width:1.0;"/><path d="M4655,558.5 L4655,564.5 L4657,564.5 L4657.4844,564.5 L4658,565.125 L4658,565.5 L4658,565.875 L4657.4844,566.5 L4657,566.5 L4651,566.5 L4650.5156,566.5 L4650,565.875 L4650,565.5 L4650,565.125 L4650.5156,564.5 L4651,564.5 L4653,564.5 L4653,558.5 L4651,558.5 L4650.5156,558.5 L4650,557.875 L4650,557.5 L4650,557.125 L4650.5156,556.5 L4651,556.5 L4657,556.5 L4657.4844,556.5 L4658,557.125 L4658,557.5 L4658,557.875 L4657.4844,558.5 L4657,558.5 L4655,558.5 Z " fill="#000000"/><text fill="#000000" font-family="sans-serif" font-size="14" font-style="italic" lengthAdjust="spacing" textLength="168" x="4668" y="566.9995">ComponentContentLoader</text><line style="stroke:#181818;stroke-width:0.5;" x1="4640" x2="4838" y1="577.5" y2="577.5"/><line style="stroke:#181818;stroke-width:0.5;" x1="4640" x2="4838" y1="585.5" y2="585.5"/></g><!--class ComponentContentLoaderImpl--><g id="elem_ComponentContentLoaderImpl"><rect codeLine="64" fill="#F1F1F1" height="150.9082" id="ComponentContentLoaderImpl" rx="2.5" ry="2.5" style="stroke:#181818;stroke-width:0.5;" width="566" x="4456" y="850.5"/><ellipse cx="4638.25" cy="866.5" fill="#ADD1B2" rx="11" ry="11" style="stroke:#181818;stroke-width:1.0;"/><path d="M4640.25,863 Q4640.4531,862.5 4640.6875,862.25 Q4640.9219,862 4641.1875,862 Q4641.6563,862 4641.9531,862.2813 Q4642.25,862.5625 4642.25,863.2188 L4642.25,864.7813 Q4642.25,865.4375 4641.9688,865.7188 Q4641.6875,866 4641.25,866 Q4640.8594,866 4640.6094,865.8281 Q4640.3594,865.6563 4640.25,865.2031 Q4640.2031,864.8906 4640.0313,864.7188 Q4639.7188,864.3906 4639.1563,864.2031 Q4638.5938,864 4638.0313,864 Q4637.3281,864 4636.7344,864.2813 Q4636.1563,864.5625 4635.7031,865.1875 Q4635.25,865.8125 4635.25,866.6719 L4635.25,867.5938 Q4635.25,868.625 4636.0938,869.3125 Q4636.9375,870 4638.4375,870 Q4639.3281,870 4639.9531,869.7969 Q4640.3125,869.6875 4640.7188,869.3281 Q4640.9844,869.125 4641.125,869.0625 Q4641.2656,869 4641.4375,869 Q4641.7656,869 4642,869.2656 Q4642.25,869.5156 4642.25,869.875 Q4642.25,870.2188 4641.9063,870.625 Q4641.4063,871.2188 4640.6094,871.5469 Q4639.5625,872 4638.2813,872 Q4636.7813,872 4635.5781,871.4063 Q4634.6094,870.9375 4633.9219,869.9219 Q4633.25,868.9063 4633.25,867.7031 L4633.25,866.6094 Q4633.25,865.3594 4633.8438,864.2656 Q4634.4531,863.1719 4635.5,862.5938 Q4636.5625,862 4637.75,862 Q4638.4688,862 4639.0938,862.25 Q4639.7188,862.5 4640.25,863 Z " fill="#000000"/><text fill="#000000" font-family="sans-serif" font-size="14" lengthAdjust="spacing" textLength="193" x="4658.75" y="871.9995">ComponentContentLoaderImpl</text><line style="stroke:#181818;stroke-width:0.5;" x1="4457" x2="5021" y1="882.5" y2="882.5"/><ellipse cx="4467" cy="896.5757" fill="none" rx="3" ry="3" style="stroke:#038048;stroke-width:1.0;"/><text fill="#000000" font-family="sans-serif" font-size="14" lengthAdjust="spacing" text-decoration="underline" textLength="68" x="4476" y="900.5752">Logger log</text><polygon fill="none" points="4467,909.7271,4463,915.7271,4471,915.7271" style="stroke:#1963A0;stroke-width:1.0;"/><text fill="#000000" font-family="sans-serif" font-size="14" lengthAdjust="spacing" textLength="259" x="4476" y="917.7266">BookingDataService bookingDataService</text><line style="stroke:#181818;stroke-width:0.5;" x1="4457" x2="5021" y1="924.8027" y2="924.8027"/><ellipse cx="4467" cy="938.8784" fill="#84BE84" rx="3" ry="3" style="stroke:#038048;stroke-width:1.0;"/><text fill="#000000" font-family="sans-serif" font-size="14" lengthAdjust="spacing" textLength="330" x="4476" y="942.8779">void loadRoomTypes(ChoiceBox&lt;RoomTypeEntity&gt;)</text><ellipse cx="4467" cy="956.0298" fill="#84BE84" rx="3" ry="3" style="stroke:#038048;stroke-width:1.0;"/><text fill="#000000" font-family="sans-serif" font-size="14" lengthAdjust="spacing" textLength="540" x="4476" y="960.0293">void loadFreeRooms(ChoiceBox&lt;RoomEntity&gt;,RoomTypeEntity,LocalDate,LocalDate)</text><ellipse cx="4467" cy="973.1812" fill="#84BE84" rx="3" ry="3" style="stroke:#038048;stroke-width:1.0;"/><text fill="#000000" font-family="sans-serif" font-size="14" lengthAdjust="spacing" textLength="432" x="4476" y="977.1807">void loadFreeRooms(ChoiceBox&lt;RoomEntity&gt;,LocalDate,LocalDate)</text><ellipse cx="4467" cy="990.3325" fill="#84BE84" rx="3" ry="3" style="stroke:#038048;stroke-width:1.0;"/><text fill="#000000" font-family="sans-serif" font-size="14" lengthAdjust="spacing" textLength="364" x="4476" y="994.332">void loadCateringTypes(ChoiceBox&lt;CateringTypeEntity&gt;)</text></g><!--class RoomEntity--><g id="elem_RoomEntity"><rect codeLine="5" fill="#F1F1F1" height="202.3623" id="RoomEntity" rx="2.5" ry="2.5" style="stroke:#181818;stroke-width:0.5;" width="280" x="1718" y="468.5"/><ellipse cx="1817.75" cy="484.5" fill="#ADD1B2" rx="11" ry="11" style="stroke:#181818;stroke-width:1.0;"/><path d="M1819.75,481 Q1819.9531,480.5 1820.1875,480.25 Q1820.4219,480 1820.6875,480 Q1821.1563,480 1821.4531,480.2813 Q1821.75,480.5625 1821.75,481.2188 L1821.75,482.7813 Q1821.75,483.4375 1821.4688,483.7188 Q1821.1875,484 1820.75,484 Q1820.3594,484 1820.1094,483.8281 Q1819.8594,483.6563 1819.75,483.2031 Q1819.7031,482.8906 1819.5313,482.7188 Q1819.2188,482.3906 1818.6563,482.2031 Q1818.0938,482 1817.5313,482 Q1816.8281,482 1816.2344,482.2813 Q1815.6563,482.5625 1815.2031,483.1875 Q1814.75,483.8125 1814.75,484.6719 L1814.75,485.5938 Q1814.75,486.625 1815.5938,487.3125 Q1816.4375,488 1817.9375,488 Q1818.8281,488 1819.4531,487.7969 Q1819.8125,487.6875 1820.2188,487.3281 Q1820.4844,487.125 1820.625,487.0625 Q1820.7656,487 1820.9375,487 Q1821.2656,487 1821.5,487.2656 Q1821.75,487.5156 1821.75,487.875 Q1821.75,488.2188 1821.4063,488.625 Q1820.9063,489.2188 1820.1094,489.5469 Q1819.0625,490 1817.7813,490 Q1816.2813,490 1815.0781,489.4063 Q1814.1094,488.9375 1813.4219,487.9219 Q1812.75,486.9063 1812.75,485.7031 L1812.75,484.6094 Q1812.75,483.3594 1813.3438,482.2656 Q1813.9531,481.1719 1815,480.5938 Q1816.0625,480 1817.25,480 Q1817.9688,480 1818.5938,480.25 Q1819.2188,480.5 1819.75,481 Z " fill="#000000"/><text fill="#000000" font-family="sans-serif" font-size="14" lengthAdjust="spacing" textLength="72" x="1838.25" y="489.9995">RoomEntity</text><line style="stroke:#181818;stroke-width:0.5;" x1="1719" x2="1997" y1="500.5" y2="500.5"/><rect fill="none" height="6" style="stroke:#C82930;stroke-width:1.0;" width="6" x="1726" y="511.5757"/><text fill="#000000" font-family="sans-serif" font-size="14" lengthAdjust="spacing" textLength="30" x="1738" y="518.5752">int id</text><rect fill="none" height="6" style="stroke:#C82930;stroke-width:1.0;" width="6" x="1726" y="528.7271"/><text fill="#000000" font-family="sans-serif" font-size="14" lengthAdjust="spacing" textLength="135" x="1738" y="535.7266">RoomTypeEntity type</text><rect fill="none" height="6" style="stroke:#C82930;stroke-width:1.0;" width="6" x="1726" y="545.8784"/><text fill="#000000" font-family="sans-serif" font-size="14" lengthAdjust="spacing" textLength="254" x="1738" y="552.8779">Set&lt;RoomBookingEntity&gt; roomBookings</text><line style="stroke:#181818;stroke-width:0.5;" x1="1719" x2="1997" y1="559.9541" y2="559.9541"/><ellipse cx="1729" cy="574.0298" fill="#84BE84" rx="3" ry="3" style="stroke:#038048;stroke-width:1.0;"/><text fill="#000000" font-family="sans-serif" font-size="14" lengthAdjust="spacing" textLength="60" x="1738" y="578.0293">int getId()</text><ellipse cx="1729" cy="591.1812" fill="#84BE84" rx="3" ry="3" style="stroke:#038048;stroke-width:1.0;"/><text fill="#000000" font-family="sans-serif" font-size="14" lengthAdjust="spacing" textLength="85" x="1738" y="595.1807">void setId(int)</text><ellipse cx="1729" cy="608.3325" fill="#84BE84" rx="3" ry="3" style="stroke:#038048;stroke-width:1.0;"/><text fill="#000000" font-family="sans-serif" font-size="14" lengthAdjust="spacing" textLength="170" x="1738" y="612.332">RoomTypeEntity getType()</text><ellipse cx="1729" cy="625.4839" fill="#84BE84" rx="3" ry="3" style="stroke:#038048;stroke-width:1.0;"/><text fill="#000000" font-family="sans-serif" font-size="14" lengthAdjust="spacing" textLength="195" x="1738" y="629.4834">void setType(RoomTypeEntity)</text><ellipse cx="1729" cy="642.6353" fill="#84BE84" rx="3" ry="3" style="stroke:#038048;stroke-width:1.0;"/><text fill="#000000" font-family="sans-serif" font-size="14" lengthAdjust="spacing" textLength="148" x="1738" y="646.6348">boolean equals(Object)</text><ellipse cx="1729" cy="659.7866" fill="#84BE84" rx="3" ry="3" style="stroke:#038048;stroke-width:1.0;"/><text fill="#000000" font-family="sans-serif" font-size="14" lengthAdjust="spacing" textLength="94" x="1738" y="663.7861">int hashCode()</text></g><!--class RoomTypeAmenityEntity--><g id="elem_RoomTypeAmenityEntity"><rect codeLine="62" fill="#F1F1F1" height="48" id="RoomTypeAmenityEntity" rx="2.5" ry="2.5" style="stroke:#181818;stroke-width:0.5;" width="186" x="2033" y="545.5"/><ellipse cx="2048" cy="561.5" fill="#ADD1B2" rx="11" ry="11" style="stroke:#181818;stroke-width:1.0;"/><path d="M2050,558 Q2050.2031,557.5 2050.4375,557.25 Q2050.6719,557 2050.9375,557 Q2051.4063,557 2051.7031,557.2813 Q2052,557.5625 2052,558.2188 L2052,559.7813 Q2052,560.4375 2051.7188,560.7188 Q2051.4375,561 2051,561 Q2050.6094,561 2050.3594,560.8281 Q2050.1094,560.6563 2050,560.2031 Q2049.9531,559.8906 2049.7813,559.7188 Q2049.4688,559.3906 2048.9063,559.2031 Q2048.3438,559 2047.7813,559 Q2047.0781,559 2046.4844,559.2813 Q2045.9063,559.5625 2045.4531,560.1875 Q2045,560.8125 2045,561.6719 L2045,562.5938 Q2045,563.625 2045.8438,564.3125 Q2046.6875,565 2048.1875,565 Q2049.0781,565 2049.7031,564.7969 Q2050.0625,564.6875 2050.4688,564.3281 Q2050.7344,564.125 2050.875,564.0625 Q2051.0156,564 2051.1875,564 Q2051.5156,564 2051.75,564.2656 Q2052,564.5156 2052,564.875 Q2052,565.2188 2051.6563,565.625 Q2051.1563,566.2188 2050.3594,566.5469 Q2049.3125,567 2048.0313,567 Q2046.5313,567 2045.3281,566.4063 Q2044.3594,565.9375 2043.6719,564.9219 Q2043,563.9063 2043,562.7031 L2043,561.6094 Q2043,560.3594 2043.5938,559.2656 Q2044.2031,558.1719 2045.25,557.5938 Q2046.3125,557 2047.5,557 Q2048.2188,557 2048.8438,557.25 Q2049.4688,557.5 2050,558 Z " fill="#000000"/><text fill="#000000" font-family="sans-serif" font-size="14" lengthAdjust="spacing" textLength="154" x="2062" y="566.9995">RoomTypeAmenityEntity</text><line style="stroke:#181818;stroke-width:0.5;" x1="2034" x2="2218" y1="577.5" y2="577.5"/><line style="stroke:#181818;stroke-width:0.5;" x1="2034" x2="2218" y1="585.5" y2="585.5"/></g><!--class GuestEntity--><g id="elem_GuestEntity"><rect codeLine="92" fill="#F1F1F1" height="48" id="GuestEntity" rx="2.5" ry="2.5" style="stroke:#181818;stroke-width:0.5;" width="105" x="2254.5" y="545.5"/><ellipse cx="2269.5" cy="561.5" fill="#ADD1B2" rx="11" ry="11" style="stroke:#181818;stroke-width:1.0;"/><path d="M2271.5,558 Q2271.7031,557.5 2271.9375,557.25 Q2272.1719,557 2272.4375,557 Q2272.9063,557 2273.2031,557.2813 Q2273.5,557.5625 2273.5,558.2188 L2273.5,559.7813 Q2273.5,560.4375 2273.2188,560.7188 Q2272.9375,561 2272.5,561 Q2272.1094,561 2271.8594,560.8281 Q2271.6094,560.6563 2271.5,560.2031 Q2271.4531,559.8906 2271.2813,559.7188 Q2270.9688,559.3906 2270.4063,559.2031 Q2269.8438,559 2269.2813,559 Q2268.5781,559 2267.9844,559.2813 Q2267.4063,559.5625 2266.9531,560.1875 Q2266.5,560.8125 2266.5,561.6719 L2266.5,562.5938 Q2266.5,563.625 2267.3438,564.3125 Q2268.1875,565 2269.6875,565 Q2270.5781,565 2271.2031,564.7969 Q2271.5625,564.6875 2271.9688,564.3281 Q2272.2344,564.125 2272.375,564.0625 Q2272.5156,564 2272.6875,564 Q2273.0156,564 2273.25,564.2656 Q2273.5,564.5156 2273.5,564.875 Q2273.5,565.2188 2273.1563,565.625 Q2272.6563,566.2188 2271.8594,566.5469 Q2270.8125,567 2269.5313,567 Q2268.0313,567 2266.8281,566.4063 Q2265.8594,565.9375 2265.1719,564.9219 Q2264.5,563.9063 2264.5,562.7031 L2264.5,561.6094 Q2264.5,560.3594 2265.0938,559.2656 Q2265.7031,558.1719 2266.75,557.5938 Q2267.8125,557 2269,557 Q2269.7188,557 2270.3438,557.25 Q2270.9688,557.5 2271.5,558 Z " fill="#000000"/><text fill="#000000" font-family="sans-serif" font-size="14" lengthAdjust="spacing" textLength="73" x="2283.5" y="566.9995">GuestEntity</text><line style="stroke:#181818;stroke-width:0.5;" x1="2255.5" x2="2358.5" y1="577.5" y2="577.5"/><line style="stroke:#181818;stroke-width:0.5;" x1="2255.5" x2="2358.5" y1="585.5" y2="585.5"/></g><!--class RoomOccupationEntity--><g id="elem_RoomOccupationEntity"><rect codeLine="105" fill="#F1F1F1" height="48" id="RoomOccupationEntity" rx="2.5" ry="2.5" style="stroke:#181818;stroke-width:0.5;" width="176" x="2395" y="545.5"/><ellipse cx="2410" cy="561.5" fill="#ADD1B2" rx="11" ry="11" style="stroke:#181818;stroke-width:1.0;"/><path d="M2412,558 Q2412.2031,557.5 2412.4375,557.25 Q2412.6719,557 2412.9375,557 Q2413.4063,557 2413.7031,557.2813 Q2414,557.5625 2414,558.2188 L2414,559.7813 Q2414,560.4375 2413.7188,560.7188 Q2413.4375,561 2413,561 Q2412.6094,561 2412.3594,560.8281 Q2412.1094,560.6563 2412,560.2031 Q2411.9531,559.8906 2411.7813,559.7188 Q2411.4688,559.3906 2410.9063,559.2031 Q2410.3438,559 2409.7813,559 Q2409.0781,559 2408.4844,559.2813 Q2407.9063,559.5625 2407.4531,560.1875 Q2407,560.8125 2407,561.6719 L2407,562.5938 Q2407,563.625 2407.8438,564.3125 Q2408.6875,565 2410.1875,565 Q2411.0781,565 2411.7031,564.7969 Q2412.0625,564.6875 2412.4688,564.3281 Q2412.7344,564.125 2412.875,564.0625 Q2413.0156,564 2413.1875,564 Q2413.5156,564 2413.75,564.2656 Q2414,564.5156 2414,564.875 Q2414,565.2188 2413.6563,565.625 Q2413.1563,566.2188 2412.3594,566.5469 Q2411.3125,567 2410.0313,567 Q2408.5313,567 2407.3281,566.4063 Q2406.3594,565.9375 2405.6719,564.9219 Q2405,563.9063 2405,562.7031 L2405,561.6094 Q2405,560.3594 2405.5938,559.2656 Q2406.2031,558.1719 2407.25,557.5938 Q2408.3125,557 2409.5,557 Q2410.2188,557 2410.8438,557.25 Q2411.4688,557.5 2412,558 Z " fill="#000000"/><text fill="#000000" font-family="sans-serif" font-size="14" lengthAdjust="spacing" textLength="144" x="2424" y="566.9995">RoomOccupationEntity</text><line style="stroke:#181818;stroke-width:0.5;" x1="2396" x2="2570" y1="577.5" y2="577.5"/><line style="stroke:#181818;stroke-width:0.5;" x1="2396" x2="2570" y1="585.5" y2="585.5"/></g><!--class RoomTypeEntity--><g id="elem_RoomTypeEntity"><rect codeLine="107" fill="#F1F1F1" height="48" id="RoomTypeEntity" rx="2.5" ry="2.5" style="stroke:#181818;stroke-width:0.5;" width="136" x="1718" y="902"/><ellipse cx="1733" cy="918" fill="#ADD1B2" rx="11" ry="11" style="stroke:#181818;stroke-width:1.0;"/><path d="M1735,914.5 Q1735.2031,914 1735.4375,913.75 Q1735.6719,913.5 1735.9375,913.5 Q1736.4063,913.5 1736.7031,913.7813 Q1737,914.0625 1737,914.7188 L1737,916.2813 Q1737,916.9375 1736.7188,917.2188 Q1736.4375,917.5 1736,917.5 Q1735.6094,917.5 1735.3594,917.3281 Q1735.1094,917.1563 1735,916.7031 Q1734.9531,916.3906 1734.7813,916.2188 Q1734.4688,915.8906 1733.9063,915.7031 Q1733.3438,915.5 1732.7813,915.5 Q1732.0781,915.5 1731.4844,915.7813 Q1730.9063,916.0625 1730.4531,916.6875 Q1730,917.3125 1730,918.1719 L1730,919.0938 Q1730,920.125 1730.8438,920.8125 Q1731.6875,921.5 1733.1875,921.5 Q1734.0781,921.5 1734.7031,921.2969 Q1735.0625,921.1875 1735.4688,920.8281 Q1735.7344,920.625 1735.875,920.5625 Q1736.0156,920.5 1736.1875,920.5 Q1736.5156,920.5 1736.75,920.7656 Q1737,921.0156 1737,921.375 Q1737,921.7188 1736.6563,922.125 Q1736.1563,922.7188 1735.3594,923.0469 Q1734.3125,923.5 1733.0313,923.5 Q1731.5313,923.5 1730.3281,922.9063 Q1729.3594,922.4375 1728.6719,921.4219 Q1728,920.4063 1728,919.2031 L1728,918.1094 Q1728,916.8594 1728.5938,915.7656 Q1729.2031,914.6719 1730.25,914.0938 Q1731.3125,913.5 1732.5,913.5 Q1733.2188,913.5 1733.8438,913.75 Q1734.4688,914 1735,914.5 Z " fill="#000000"/><text fill="#000000" font-family="sans-serif" font-size="14" lengthAdjust="spacing" textLength="104" x="1747" y="923.4995">RoomTypeEntity</text><line style="stroke:#181818;stroke-width:0.5;" x1="1719" x2="1853" y1="934" y2="934"/><line style="stroke:#181818;stroke-width:0.5;" x1="1719" x2="1853" y1="942" y2="942"/></g><!--class CateringBookingEntity--><g id="elem_CateringBookingEntity"><rect codeLine="109" fill="#F1F1F1" height="65.1514" id="CateringBookingEntity" rx="2.5" ry="2.5" style="stroke:#181818;stroke-width:0.5;" width="704" x="1889" y="893.5"/><ellipse cx="2166.75" cy="909.5" fill="#ADD1B2" rx="11" ry="11" style="stroke:#181818;stroke-width:1.0;"/><path d="M2168.75,906 Q2168.9531,905.5 2169.1875,905.25 Q2169.4219,905 2169.6875,905 Q2170.1563,905 2170.4531,905.2813 Q2170.75,905.5625 2170.75,906.2188 L2170.75,907.7813 Q2170.75,908.4375 2170.4688,908.7188 Q2170.1875,909 2169.75,909 Q2169.3594,909 2169.1094,908.8281 Q2168.8594,908.6563 2168.75,908.2031 Q2168.7031,907.8906 2168.5313,907.7188 Q2168.2188,907.3906 2167.6563,907.2031 Q2167.0938,907 2166.5313,907 Q2165.8281,907 2165.2344,907.2813 Q2164.6563,907.5625 2164.2031,908.1875 Q2163.75,908.8125 2163.75,909.6719 L2163.75,910.5938 Q2163.75,911.625 2164.5938,912.3125 Q2165.4375,913 2166.9375,913 Q2167.8281,913 2168.4531,912.7969 Q2168.8125,912.6875 2169.2188,912.3281 Q2169.4844,912.125 2169.625,912.0625 Q2169.7656,912 2169.9375,912 Q2170.2656,912 2170.5,912.2656 Q2170.75,912.5156 2170.75,912.875 Q2170.75,913.2188 2170.4063,913.625 Q2169.9063,914.2188 2169.1094,914.5469 Q2168.0625,915 2166.7813,915 Q2165.2813,915 2164.0781,914.4063 Q2163.1094,913.9375 2162.4219,912.9219 Q2161.75,911.9063 2161.75,910.7031 L2161.75,909.6094 Q2161.75,908.3594 2162.3438,907.2656 Q2162.9531,906.1719 2164,905.5938 Q2165.0625,905 2166.25,905 Q2166.9688,905 2167.5938,905.25 Q2168.2188,905.5 2168.75,906 Z " fill="#000000"/><text fill="#000000" font-family="sans-serif" font-size="14" lengthAdjust="spacing" textLength="140" x="2187.25" y="914.9995">CateringBookingEntity</text><line style="stroke:#181818;stroke-width:0.5;" x1="1890" x2="2592" y1="925.5" y2="925.5"/><line style="stroke:#181818;stroke-width:0.5;" x1="1890" x2="2592" y1="933.5" y2="933.5"/><ellipse cx="1900" cy="947.5757" fill="#84BE84" rx="3" ry="3" style="stroke:#038048;stroke-width:1.0;"/><text fill="#000000" font-family="sans-serif" font-size="14" lengthAdjust="spacing" textLength="678" x="1909" y="951.5752">Set&lt;CateringBookingEntity&gt; createCateringBookings(int,RoomBookingEntity,CateringTypeEntity,Date,Date)</text></g><!--class RoomBookingEntity--><g id="elem_RoomBookingEntity"><rect codeLine="112" fill="#F1F1F1" height="48" id="RoomBookingEntity" rx="2.5" ry="2.5" style="stroke:#181818;stroke-width:0.5;" width="155" x="2628.5" y="902"/><ellipse cx="2643.5" cy="918" fill="#ADD1B2" rx="11" ry="11" style="stroke:#181818;stroke-width:1.0;"/><path d="M2645.5,914.5 Q2645.7031,914 2645.9375,913.75 Q2646.1719,913.5 2646.4375,913.5 Q2646.9063,913.5 2647.2031,913.7813 Q2647.5,914.0625 2647.5,914.7188 L2647.5,916.2813 Q2647.5,916.9375 2647.2188,917.2188 Q2646.9375,917.5 2646.5,917.5 Q2646.1094,917.5 2645.8594,917.3281 Q2645.6094,917.1563 2645.5,916.7031 Q2645.4531,916.3906 2645.2813,916.2188 Q2644.9688,915.8906 2644.4063,915.7031 Q2643.8438,915.5 2643.2813,915.5 Q2642.5781,915.5 2641.9844,915.7813 Q2641.4063,916.0625 2640.9531,916.6875 Q2640.5,917.3125 2640.5,918.1719 L2640.5,919.0938 Q2640.5,920.125 2641.3438,920.8125 Q2642.1875,921.5 2643.6875,921.5 Q2644.5781,921.5 2645.2031,921.2969 Q2645.5625,921.1875 2645.9688,920.8281 Q2646.2344,920.625 2646.375,920.5625 Q2646.5156,920.5 2646.6875,920.5 Q2647.0156,920.5 2647.25,920.7656 Q2647.5,921.0156 2647.5,921.375 Q2647.5,921.7188 2647.1563,922.125 Q2646.6563,922.7188 2645.8594,923.0469 Q2644.8125,923.5 2643.5313,923.5 Q2642.0313,923.5 2640.8281,922.9063 Q2639.8594,922.4375 2639.1719,921.4219 Q2638.5,920.4063 2638.5,919.2031 L2638.5,918.1094 Q2638.5,916.8594 2639.0938,915.7656 Q2639.7031,914.6719 2640.75,914.0938 Q2641.8125,913.5 2643,913.5 Q2643.7188,913.5 2644.3438,913.75 Q2644.9688,914 2645.5,914.5 Z " fill="#000000"/><text fill="#000000" font-family="sans-serif" font-size="14" lengthAdjust="spacing" textLength="123" x="2657.5" y="923.4995">RoomBookingEntity</text><line style="stroke:#181818;stroke-width:0.5;" x1="2629.5" x2="2782.5" y1="934" y2="934"/><line style="stroke:#181818;stroke-width:0.5;" x1="2629.5" x2="2782.5" y1="942" y2="942"/></g><!--class AmenityEntity--><g id="elem_AmenityEntity"><rect codeLine="123" fill="#F1F1F1" height="48" id="AmenityEntity" rx="2.5" ry="2.5" style="stroke:#181818;stroke-width:0.5;" width="117" x="2818.5" y="902"/><ellipse cx="2833.5" cy="918" fill="#ADD1B2" rx="11" ry="11" style="stroke:#181818;stroke-width:1.0;"/><path d="M2835.5,914.5 Q2835.7031,914 2835.9375,913.75 Q2836.1719,913.5 2836.4375,913.5 Q2836.9063,913.5 2837.2031,913.7813 Q2837.5,914.0625 2837.5,914.7188 L2837.5,916.2813 Q2837.5,916.9375 2837.2188,917.2188 Q2836.9375,917.5 2836.5,917.5 Q2836.1094,917.5 2835.8594,917.3281 Q2835.6094,917.1563 2835.5,916.7031 Q2835.4531,916.3906 2835.2813,916.2188 Q2834.9688,915.8906 2834.4063,915.7031 Q2833.8438,915.5 2833.2813,915.5 Q2832.5781,915.5 2831.9844,915.7813 Q2831.4063,916.0625 2830.9531,916.6875 Q2830.5,917.3125 2830.5,918.1719 L2830.5,919.0938 Q2830.5,920.125 2831.3438,920.8125 Q2832.1875,921.5 2833.6875,921.5 Q2834.5781,921.5 2835.2031,921.2969 Q2835.5625,921.1875 2835.9688,920.8281 Q2836.2344,920.625 2836.375,920.5625 Q2836.5156,920.5 2836.6875,920.5 Q2837.0156,920.5 2837.25,920.7656 Q2837.5,921.0156 2837.5,921.375 Q2837.5,921.7188 2837.1563,922.125 Q2836.6563,922.7188 2835.8594,923.0469 Q2834.8125,923.5 2833.5313,923.5 Q2832.0313,923.5 2830.8281,922.9063 Q2829.8594,922.4375 2829.1719,921.4219 Q2828.5,920.4063 2828.5,919.2031 L2828.5,918.1094 Q2828.5,916.8594 2829.0938,915.7656 Q2829.7031,914.6719 2830.75,914.0938 Q2831.8125,913.5 2833,913.5 Q2833.7188,913.5 2834.3438,913.75 Q2834.9688,914 2835.5,914.5 Z " fill="#000000"/><text fill="#000000" font-family="sans-serif" font-size="14" lengthAdjust="spacing" textLength="85" x="2847.5" y="923.4995">AmenityEntity</text><line style="stroke:#181818;stroke-width:0.5;" x1="2819.5" x2="2934.5" y1="934" y2="934"/><line style="stroke:#181818;stroke-width:0.5;" x1="2819.5" x2="2934.5" y1="942" y2="942"/></g><!--class CateringTypeEntity--><g id="elem_CateringTypeEntity"><rect codeLine="143" fill="#F1F1F1" height="48" id="CateringTypeEntity" rx="2.5" ry="2.5" style="stroke:#181818;stroke-width:0.5;" width="153" x="1718.5" y="1147"/><ellipse cx="1733.5" cy="1163" fill="#ADD1B2" rx="11" ry="11" style="stroke:#181818;stroke-width:1.0;"/><path d="M1735.5,1159.5 Q1735.7031,1159 1735.9375,1158.75 Q1736.1719,1158.5 1736.4375,1158.5 Q1736.9063,1158.5 1737.2031,1158.7813 Q1737.5,1159.0625 1737.5,1159.7188 L1737.5,1161.2813 Q1737.5,1161.9375 1737.2188,1162.2188 Q1736.9375,1162.5 1736.5,1162.5 Q1736.1094,1162.5 1735.8594,1162.3281 Q1735.6094,1162.1563 1735.5,1161.7031 Q1735.4531,1161.3906 1735.2813,1161.2188 Q1734.9688,1160.8906 1734.4063,1160.7031 Q1733.8438,1160.5 1733.2813,1160.5 Q1732.5781,1160.5 1731.9844,1160.7813 Q1731.4063,1161.0625 1730.9531,1161.6875 Q1730.5,1162.3125 1730.5,1163.1719 L1730.5,1164.0938 Q1730.5,1165.125 1731.3438,1165.8125 Q1732.1875,1166.5 1733.6875,1166.5 Q1734.5781,1166.5 1735.2031,1166.2969 Q1735.5625,1166.1875 1735.9688,1165.8281 Q1736.2344,1165.625 1736.375,1165.5625 Q1736.5156,1165.5 1736.6875,1165.5 Q1737.0156,1165.5 1737.25,1165.7656 Q1737.5,1166.0156 1737.5,1166.375 Q1737.5,1166.7188 1737.1563,1167.125 Q1736.6563,1167.7188 1735.8594,1168.0469 Q1734.8125,1168.5 1733.5313,1168.5 Q1732.0313,1168.5 1730.8281,1167.9063 Q1729.8594,1167.4375 1729.1719,1166.4219 Q1728.5,1165.4063 1728.5,1164.2031 L1728.5,1163.1094 Q1728.5,1161.8594 1729.0938,1160.7656 Q1729.7031,1159.6719 1730.75,1159.0938 Q1731.8125,1158.5 1733,1158.5 Q1733.7188,1158.5 1734.3438,1158.75 Q1734.9688,1159 1735.5,1159.5 Z " fill="#000000"/><text fill="#000000" font-family="sans-serif" font-size="14" lengthAdjust="spacing" textLength="121" x="1747.5" y="1168.4995">CateringTypeEntity</text><line style="stroke:#181818;stroke-width:0.5;" x1="1719.5" x2="1870.5" y1="1179" y2="1179"/><line style="stroke:#181818;stroke-width:0.5;" x1="1719.5" x2="1870.5" y1="1187" y2="1187"/></g><!--class AddressEntity--><g id="elem_AddressEntity"><rect codeLine="145" fill="#F1F1F1" height="48" id="AddressEntity" rx="2.5" ry="2.5" style="stroke:#181818;stroke-width:0.5;" width="119" x="1906.5" y="1147"/><ellipse cx="1921.5" cy="1163" fill="#ADD1B2" rx="11" ry="11" style="stroke:#181818;stroke-width:1.0;"/><path d="M1923.5,1159.5 Q1923.7031,1159 1923.9375,1158.75 Q1924.1719,1158.5 1924.4375,1158.5 Q1924.9063,1158.5 1925.2031,1158.7813 Q1925.5,1159.0625 1925.5,1159.7188 L1925.5,1161.2813 Q1925.5,1161.9375 1925.2188,1162.2188 Q1924.9375,1162.5 1924.5,1162.5 Q1924.1094,1162.5 1923.8594,1162.3281 Q1923.6094,1162.1563 1923.5,1161.7031 Q1923.4531,1161.3906 1923.2813,1161.2188 Q1922.9688,1160.8906 1922.4063,1160.7031 Q1921.8438,1160.5 1921.2813,1160.5 Q1920.5781,1160.5 1919.9844,1160.7813 Q1919.4063,1161.0625 1918.9531,1161.6875 Q1918.5,1162.3125 1918.5,1163.1719 L1918.5,1164.0938 Q1918.5,1165.125 1919.3438,1165.8125 Q1920.1875,1166.5 1921.6875,1166.5 Q1922.5781,1166.5 1923.2031,1166.2969 Q1923.5625,1166.1875 1923.9688,1165.8281 Q1924.2344,1165.625 1924.375,1165.5625 Q1924.5156,1165.5 1924.6875,1165.5 Q1925.0156,1165.5 1925.25,1165.7656 Q1925.5,1166.0156 1925.5,1166.375 Q1925.5,1166.7188 1925.1563,1167.125 Q1924.6563,1167.7188 1923.8594,1168.0469 Q1922.8125,1168.5 1921.5313,1168.5 Q1920.0313,1168.5 1918.8281,1167.9063 Q1917.8594,1167.4375 1917.1719,1166.4219 Q1916.5,1165.4063 1916.5,1164.2031 L1916.5,1163.1094 Q1916.5,1161.8594 1917.0938,1160.7656 Q1917.7031,1159.6719 1918.75,1159.0938 Q1919.8125,1158.5 1921,1158.5 Q1921.7188,1158.5 1922.3438,1158.75 Q1922.9688,1159 1923.5,1159.5 Z " fill="#000000"/><text fill="#000000" font-family="sans-serif" font-size="14" lengthAdjust="spacing" textLength="87" x="1935.5" y="1168.4995">AddressEntity</text><line style="stroke:#181818;stroke-width:0.5;" x1="1907.5" x2="2024.5" y1="1179" y2="1179"/><line style="stroke:#181818;stroke-width:0.5;" x1="1907.5" x2="2024.5" y1="1187" y2="1187"/></g><!--class BookingDataServiceImpl--><g id="elem_BookingDataServiceImpl"><rect codeLine="32" fill="#F1F1F1" height="288.1191" id="BookingDataServiceImpl" rx="2.5" ry="2.5" style="stroke:#181818;stroke-width:0.5;" width="631" x="1030.5" y="782"/><ellipse cx="1265.25" cy="798" fill="#ADD1B2" rx="11" ry="11" style="stroke:#181818;stroke-width:1.0;"/><path d="M1267.25,794.5 Q1267.4531,794 1267.6875,793.75 Q1267.9219,793.5 1268.1875,793.5 Q1268.6563,793.5 1268.9531,793.7813 Q1269.25,794.0625 1269.25,794.7188 L1269.25,796.2813 Q1269.25,796.9375 1268.9688,797.2188 Q1268.6875,797.5 1268.25,797.5 Q1267.8594,797.5 1267.6094,797.3281 Q1267.3594,797.1563 1267.25,796.7031 Q1267.2031,796.3906 1267.0313,796.2188 Q1266.7188,795.8906 1266.1563,795.7031 Q1265.5938,795.5 1265.0313,795.5 Q1264.3281,795.5 1263.7344,795.7813 Q1263.1563,796.0625 1262.7031,796.6875 Q1262.25,797.3125 1262.25,798.1719 L1262.25,799.0938 Q1262.25,800.125 1263.0938,800.8125 Q1263.9375,801.5 1265.4375,801.5 Q1266.3281,801.5 1266.9531,801.2969 Q1267.3125,801.1875 1267.7188,800.8281 Q1267.9844,800.625 1268.125,800.5625 Q1268.2656,800.5 1268.4375,800.5 Q1268.7656,800.5 1269,800.7656 Q1269.25,801.0156 1269.25,801.375 Q1269.25,801.7188 1268.9063,802.125 Q1268.4063,802.7188 1267.6094,803.0469 Q1266.5625,803.5 1265.2813,803.5 Q1263.7813,803.5 1262.5781,802.9063 Q1261.6094,802.4375 1260.9219,801.4219 Q1260.25,800.4063 1260.25,799.2031 L1260.25,798.1094 Q1260.25,796.8594 1260.8438,795.7656 Q1261.4531,794.6719 1262.5,794.0938 Q1263.5625,793.5 1264.75,793.5 Q1265.4688,793.5 1266.0938,793.75 Q1266.7188,794 1267.25,794.5 Z " fill="#000000"/><text fill="#000000" font-family="sans-serif" font-size="14" lengthAdjust="spacing" textLength="153" x="1285.75" y="803.4995">BookingDataServiceImpl</text><line style="stroke:#181818;stroke-width:0.5;" x1="1031.5" x2="1660.5" y1="814" y2="814"/><rect fill="none" height="6" style="stroke:#C82930;stroke-width:1.0;" width="6" x="1038.5" y="825.0757"/><text fill="#000000" font-family="sans-serif" font-size="14" lengthAdjust="spacing" text-decoration="underline" textLength="114" x="1050.5" y="832.0752">EntityManager em</text><rect fill="none" height="6" style="stroke:#C82930;stroke-width:1.0;" width="6" x="1038.5" y="842.2271"/><text fill="#000000" font-family="sans-serif" font-size="14" lengthAdjust="spacing" text-decoration="underline" textLength="68" x="1050.5" y="849.2266">Logger log</text><line style="stroke:#181818;stroke-width:0.5;" x1="1031.5" x2="1660.5" y1="856.3027" y2="856.3027"/><ellipse cx="1041.5" cy="870.3784" fill="#84BE84" rx="3" ry="3" style="stroke:#038048;stroke-width:1.0;"/><text fill="#000000" font-family="sans-serif" font-size="14" lengthAdjust="spacing" textLength="468" x="1050.5" y="874.3779">List&lt;RoomEntity&gt; getAllFreeRoomsForPeriod(RoomTypeEntity,Date,Date)</text><ellipse cx="1041.5" cy="887.5298" fill="#84BE84" rx="3" ry="3" style="stroke:#038048;stroke-width:1.0;"/><text fill="#000000" font-family="sans-serif" font-size="14" lengthAdjust="spacing" textLength="301" x="1050.5" y="891.5293">List&lt;CateringTypeEntity&gt; getAllCateringTypes()</text><ellipse cx="1041.5" cy="904.6812" fill="#84BE84" rx="3" ry="3" style="stroke:#038048;stroke-width:1.0;"/><text fill="#000000" font-family="sans-serif" font-size="14" lengthAdjust="spacing" textLength="267" x="1050.5" y="908.6807">List&lt;RoomTypeEntity&gt; getAllRoomTypes()</text><rect fill="#F24D5C" height="6" style="stroke:#C82930;stroke-width:1.0;" width="6" x="1038.5" y="918.8325"/><text fill="#000000" font-family="sans-serif" font-size="14" lengthAdjust="spacing" textLength="165" x="1050.5" y="925.832">void persistSingleEntity(T)</text><ellipse cx="1041.5" cy="938.9839" fill="#84BE84" rx="3" ry="3" style="stroke:#038048;stroke-width:1.0;"/><text fill="#000000" font-family="sans-serif" font-size="14" lengthAdjust="spacing" textLength="293" x="1050.5" y="942.9834">void persistRoomBooking(RoomBookingEntity)</text><ellipse cx="1041.5" cy="956.1353" fill="#84BE84" rx="3" ry="3" style="stroke:#038048;stroke-width:1.0;"/><text fill="#000000" font-family="sans-serif" font-size="14" lengthAdjust="spacing" textLength="221" x="1050.5" y="960.1348">void persistAddress(AddressEntity)</text><ellipse cx="1041.5" cy="973.2866" fill="#84BE84" rx="3" ry="3" style="stroke:#038048;stroke-width:1.0;"/><text fill="#000000" font-family="sans-serif" font-size="14" lengthAdjust="spacing" textLength="193" x="1050.5" y="977.2861">void persistGuest(GuestEntity)</text><ellipse cx="1041.5" cy="990.438" fill="#84BE84" rx="3" ry="3" style="stroke:#038048;stroke-width:1.0;"/><text fill="#000000" font-family="sans-serif" font-size="14" lengthAdjust="spacing" textLength="371" x="1050.5" y="994.4375">void persistCateringBookings(Set&lt;CateringBookingEntity&gt;)</text><ellipse cx="1041.5" cy="1007.5894" fill="#84BE84" rx="3" ry="3" style="stroke:#038048;stroke-width:1.0;"/><text fill="#000000" font-family="sans-serif" font-size="14" lengthAdjust="spacing" textLength="605" x="1050.5" y="1011.5889">void persistBooking(AddressEntity,GuestEntity,RoomBookingEntity,Set&lt;CateringBookingEntity&gt;)</text><ellipse cx="1041.5" cy="1024.7407" fill="#84BE84" rx="3" ry="3" style="stroke:#038048;stroke-width:1.0;"/><text fill="#000000" font-family="sans-serif" font-size="14" lengthAdjust="spacing" textLength="296" x="1050.5" y="1028.7402">boolean ifAddressInDbUpdateId(AddressEntity)</text><rect fill="#F24D5C" height="6" style="stroke:#C82930;stroke-width:1.0;" width="6" x="1038.5" y="1038.8921"/><text fill="#000000" font-family="sans-serif" font-size="14" lengthAdjust="spacing" textLength="268" x="1050.5" y="1045.8916">boolean ifGuestInDbUpdateId(GuestEntity)</text><rect fill="#F24D5C" height="6" style="stroke:#C82930;stroke-width:1.0;" width="6" x="1038.5" y="1056.0435"/><text fill="#000000" font-family="sans-serif" font-size="14" lengthAdjust="spacing" textLength="293" x="1050.5" y="1063.043">List&lt;T&gt; executeTypedQuery(TypedQuery&lt;T&gt;)</text></g><!--class BookingDataService--><g id="elem_BookingDataService"><rect codeLine="48" fill="#F1F1F1" height="185.2109" id="BookingDataService" rx="2.5" ry="2.5" style="stroke:#181818;stroke-width:0.5;" width="631" x="1030.5" y="477"/><ellipse cx="1277.75" cy="493" fill="#B4A7E5" rx="11" ry="11" style="stroke:#181818;stroke-width:1.0;"/><path d="M1278.75,490 L1278.75,496 L1280.75,496 L1281.2344,496 L1281.75,496.625 L1281.75,497 L1281.75,497.375 L1281.2344,498 L1280.75,498 L1274.75,498 L1274.2656,498 L1273.75,497.375 L1273.75,497 L1273.75,496.625 L1274.2656,496 L1274.75,496 L1276.75,496 L1276.75,490 L1274.75,490 L1274.2656,490 L1273.75,489.375 L1273.75,489 L1273.75,488.625 L1274.2656,488 L1274.75,488 L1280.75,488 L1281.2344,488 L1281.75,488.625 L1281.75,489 L1281.75,489.375 L1281.2344,490 L1280.75,490 L1278.75,490 Z " fill="#000000"/><text fill="#000000" font-family="sans-serif" font-size="14" font-style="italic" lengthAdjust="spacing" textLength="128" x="1298.25" y="498.4995">BookingDataService</text><line style="stroke:#181818;stroke-width:0.5;" x1="1031.5" x2="1660.5" y1="509" y2="509"/><line style="stroke:#181818;stroke-width:0.5;" x1="1031.5" x2="1660.5" y1="517" y2="517"/><polygon fill="#4177AF" points="1041.5,527.0757,1037.5,533.0757,1045.5,533.0757" style="stroke:#1963A0;stroke-width:1.0;"/><text fill="#000000" font-family="sans-serif" font-size="14" lengthAdjust="spacing" textLength="468" x="1050.5" y="535.0752">List&lt;RoomEntity&gt; getAllFreeRoomsForPeriod(RoomTypeEntity,Date,Date)</text><polygon fill="#4177AF" points="1041.5,544.2271,1037.5,550.2271,1045.5,550.2271" style="stroke:#1963A0;stroke-width:1.0;"/><text fill="#000000" font-family="sans-serif" font-size="14" lengthAdjust="spacing" textLength="301" x="1050.5" y="552.2266">List&lt;CateringTypeEntity&gt; getAllCateringTypes()</text><polygon fill="#4177AF" points="1041.5,561.3784,1037.5,567.3784,1045.5,567.3784" style="stroke:#1963A0;stroke-width:1.0;"/><text fill="#000000" font-family="sans-serif" font-size="14" lengthAdjust="spacing" textLength="267" x="1050.5" y="569.3779">List&lt;RoomTypeEntity&gt; getAllRoomTypes()</text><polygon fill="#4177AF" points="1041.5,578.5298,1037.5,584.5298,1045.5,584.5298" style="stroke:#1963A0;stroke-width:1.0;"/><text fill="#000000" font-family="sans-serif" font-size="14" lengthAdjust="spacing" textLength="293" x="1050.5" y="586.5293">void persistRoomBooking(RoomBookingEntity)</text><polygon fill="#4177AF" points="1041.5,595.6812,1037.5,601.6812,1045.5,601.6812" style="stroke:#1963A0;stroke-width:1.0;"/><text fill="#000000" font-family="sans-serif" font-size="14" lengthAdjust="spacing" textLength="221" x="1050.5" y="603.6807">void persistAddress(AddressEntity)</text><polygon fill="#4177AF" points="1041.5,612.8325,1037.5,618.8325,1045.5,618.8325" style="stroke:#1963A0;stroke-width:1.0;"/><text fill="#000000" font-family="sans-serif" font-size="14" lengthAdjust="spacing" textLength="193" x="1050.5" y="620.832">void persistGuest(GuestEntity)</text><polygon fill="#4177AF" points="1041.5,629.9839,1037.5,635.9839,1045.5,635.9839" style="stroke:#1963A0;stroke-width:1.0;"/><text fill="#000000" font-family="sans-serif" font-size="14" lengthAdjust="spacing" textLength="371" x="1050.5" y="637.9834">void persistCateringBookings(Set&lt;CateringBookingEntity&gt;)</text><polygon fill="#4177AF" points="1041.5,647.1353,1037.5,653.1353,1045.5,653.1353" style="stroke:#1963A0;stroke-width:1.0;"/><text fill="#000000" font-family="sans-serif" font-size="14" lengthAdjust="spacing" textLength="605" x="1050.5" y="655.1348">void persistBooking(AddressEntity,GuestEntity,RoomBookingEntity,Set&lt;CateringBookingEntity&gt;)</text></g><!--class DateUtils--><g id="elem_DateUtils"><rect codeLine="147" fill="#F1F1F1" height="65.1514" id="DateUtils" rx="2.5" ry="2.5" style="stroke:#181818;stroke-width:0.5;" width="231" x="742.5" y="537"/><ellipse cx="825.75" cy="553" fill="#ADD1B2" rx="11" ry="11" style="stroke:#181818;stroke-width:1.0;"/><path d="M827.75,549.5 Q827.9531,549 828.1875,548.75 Q828.4219,548.5 828.6875,548.5 Q829.1563,548.5 829.4531,548.7813 Q829.75,549.0625 829.75,549.7188 L829.75,551.2813 Q829.75,551.9375 829.4688,552.2188 Q829.1875,552.5 828.75,552.5 Q828.3594,552.5 828.1094,552.3281 Q827.8594,552.1563 827.75,551.7031 Q827.7031,551.3906 827.5313,551.2188 Q827.2188,550.8906 826.6563,550.7031 Q826.0938,550.5 825.5313,550.5 Q824.8281,550.5 824.2344,550.7813 Q823.6563,551.0625 823.2031,551.6875 Q822.75,552.3125 822.75,553.1719 L822.75,554.0938 Q822.75,555.125 823.5938,555.8125 Q824.4375,556.5 825.9375,556.5 Q826.8281,556.5 827.4531,556.2969 Q827.8125,556.1875 828.2188,555.8281 Q828.4844,555.625 828.625,555.5625 Q828.7656,555.5 828.9375,555.5 Q829.2656,555.5 829.5,555.7656 Q829.75,556.0156 829.75,556.375 Q829.75,556.7188 829.4063,557.125 Q828.9063,557.7188 828.1094,558.0469 Q827.0625,558.5 825.7813,558.5 Q824.2813,558.5 823.0781,557.9063 Q822.1094,557.4375 821.4219,556.4219 Q820.75,555.4063 820.75,554.2031 L820.75,553.1094 Q820.75,551.8594 821.3438,550.7656 Q821.9531,549.6719 823,549.0938 Q824.0625,548.5 825.25,548.5 Q825.9688,548.5 826.5938,548.75 Q827.2188,549 827.75,549.5 Z " fill="#000000"/><text fill="#000000" font-family="sans-serif" font-size="14" lengthAdjust="spacing" textLength="56" x="846.25" y="558.4995">DateUtils</text><line style="stroke:#181818;stroke-width:0.5;" x1="743.5" x2="972.5" y1="569" y2="569"/><line style="stroke:#181818;stroke-width:0.5;" x1="743.5" x2="972.5" y1="577" y2="577"/><ellipse cx="753.5" cy="591.0757" fill="#84BE84" rx="3" ry="3" style="stroke:#038048;stroke-width:1.0;"/><text fill="#000000" font-family="sans-serif" font-size="14" lengthAdjust="spacing" text-decoration="underline" textLength="205" x="762.5" y="595.0752">java.sql.Date asDate(LocalDate)</text></g><!--class DecimalTextFormatter--><g id="elem_DecimalTextFormatter"><rect codeLine="150" fill="#F1F1F1" height="48" id="DecimalTextFormatter" rx="2.5" ry="2.5" style="stroke:#181818;stroke-width:0.5;" width="171" x="536.5" y="545.5"/><ellipse cx="551.5" cy="561.5" fill="#ADD1B2" rx="11" ry="11" style="stroke:#181818;stroke-width:1.0;"/><path d="M553.5,558 Q553.7031,557.5 553.9375,557.25 Q554.1719,557 554.4375,557 Q554.9063,557 555.2031,557.2813 Q555.5,557.5625 555.5,558.2188 L555.5,559.7813 Q555.5,560.4375 555.2188,560.7188 Q554.9375,561 554.5,561 Q554.1094,561 553.8594,560.8281 Q553.6094,560.6563 553.5,560.2031 Q553.4531,559.8906 553.2813,559.7188 Q552.9688,559.3906 552.4063,559.2031 Q551.8438,559 551.2813,559 Q550.5781,559 549.9844,559.2813 Q549.4063,559.5625 548.9531,560.1875 Q548.5,560.8125 548.5,561.6719 L548.5,562.5938 Q548.5,563.625 549.3438,564.3125 Q550.1875,565 551.6875,565 Q552.5781,565 553.2031,564.7969 Q553.5625,564.6875 553.9688,564.3281 Q554.2344,564.125 554.375,564.0625 Q554.5156,564 554.6875,564 Q555.0156,564 555.25,564.2656 Q555.5,564.5156 555.5,564.875 Q555.5,565.2188 555.1563,565.625 Q554.6563,566.2188 553.8594,566.5469 Q552.8125,567 551.5313,567 Q550.0313,567 548.8281,566.4063 Q547.8594,565.9375 547.1719,564.9219 Q546.5,563.9063 546.5,562.7031 L546.5,561.6094 Q546.5,560.3594 547.0938,559.2656 Q547.7031,558.1719 548.75,557.5938 Q549.8125,557 551,557 Q551.7188,557 552.3438,557.25 Q552.9688,557.5 553.5,558 Z " fill="#000000"/><text fill="#000000" font-family="sans-serif" font-size="14" lengthAdjust="spacing" textLength="139" x="565.5" y="566.9995">DecimalTextFormatter</text><line style="stroke:#181818;stroke-width:0.5;" x1="537.5" x2="706.5" y1="577.5" y2="577.5"/><line style="stroke:#181818;stroke-width:0.5;" x1="537.5" x2="706.5" y1="585.5" y2="585.5"/></g><!--class ResourcePaths--><g id="elem_ResourcePaths"><rect codeLine="152" fill="#F1F1F1" height="99.4541" id="ResourcePaths" rx="2.5" ry="2.5" style="stroke:#181818;stroke-width:0.5;" width="264" x="237" y="520"/><ellipse cx="316.25" cy="536" fill="#ADD1B2" rx="11" ry="11" style="stroke:#181818;stroke-width:1.0;"/><path d="M318.25,532.5 Q318.4531,532 318.6875,531.75 Q318.9219,531.5 319.1875,531.5 Q319.6563,531.5 319.9531,531.7813 Q320.25,532.0625 320.25,532.7188 L320.25,534.2813 Q320.25,534.9375 319.9688,535.2188 Q319.6875,535.5 319.25,535.5 Q318.8594,535.5 318.6094,535.3281 Q318.3594,535.1563 318.25,534.7031 Q318.2031,534.3906 318.0313,534.2188 Q317.7188,533.8906 317.1563,533.7031 Q316.5938,533.5 316.0313,533.5 Q315.3281,533.5 314.7344,533.7813 Q314.1563,534.0625 313.7031,534.6875 Q313.25,535.3125 313.25,536.1719 L313.25,537.0938 Q313.25,538.125 314.0938,538.8125 Q314.9375,539.5 316.4375,539.5 Q317.3281,539.5 317.9531,539.2969 Q318.3125,539.1875 318.7188,538.8281 Q318.9844,538.625 319.125,538.5625 Q319.2656,538.5 319.4375,538.5 Q319.7656,538.5 320,538.7656 Q320.25,539.0156 320.25,539.375 Q320.25,539.7188 319.9063,540.125 Q319.4063,540.7188 318.6094,541.0469 Q317.5625,541.5 316.2813,541.5 Q314.7813,541.5 313.5781,540.9063 Q312.6094,540.4375 311.9219,539.4219 Q311.25,538.4063 311.25,537.2031 L311.25,536.1094 Q311.25,534.8594 311.8438,533.7656 Q312.4531,532.6719 313.5,532.0938 Q314.5625,531.5 315.75,531.5 Q316.4688,531.5 317.0938,531.75 Q317.7188,532 318.25,532.5 Z " fill="#000000"/><text fill="#000000" font-family="sans-serif" font-size="14" lengthAdjust="spacing" textLength="97" x="336.75" y="541.4995">ResourcePaths</text><line style="stroke:#181818;stroke-width:0.5;" x1="238" x2="500" y1="552" y2="552"/><ellipse cx="248" cy="566.0757" fill="none" rx="3" ry="3" style="stroke:#038048;stroke-width:1.0;"/><text fill="#000000" font-family="sans-serif" font-size="14" lengthAdjust="spacing" text-decoration="underline" textLength="224" x="257" y="570.0752">String BOOKING_CREATION_VIEW</text><ellipse cx="248" cy="583.2271" fill="none" rx="3" ry="3" style="stroke:#038048;stroke-width:1.0;"/><text fill="#000000" font-family="sans-serif" font-size="14" lengthAdjust="spacing" text-decoration="underline" textLength="238" x="257" y="587.2266">String OVERVIEW_CALENDER_VIEW</text><ellipse cx="248" cy="600.3784" fill="none" rx="3" ry="3" style="stroke:#038048;stroke-width:1.0;"/><text fill="#000000" font-family="sans-serif" font-size="14" lengthAdjust="spacing" text-decoration="underline" textLength="178" x="257" y="604.3779">String LANGUAGE_BUNDLE</text><line style="stroke:#181818;stroke-width:0.5;" x1="238" x2="500" y1="611.4541" y2="611.4541"/></g><!--class TextFormatter--><g id="elem_TextFormatter"><rect fill="#F1F1F1" height="48" id="TextFormatter" rx="2.5" ry="2.5" style="stroke:#181818;stroke-width:0.5;" width="121" x="4177.5" y="130"/><ellipse cx="4192.5" cy="146" fill="#ADD1B2" rx="11" ry="11" style="stroke:#181818;stroke-width:1.0;"/><path d="M4194.5,142.5 Q4194.7031,142 4194.9375,141.75 Q4195.1719,141.5 4195.4375,141.5 Q4195.9063,141.5 4196.2031,141.7813 Q4196.5,142.0625 4196.5,142.7188 L4196.5,144.2813 Q4196.5,144.9375 4196.2188,145.2188 Q4195.9375,145.5 4195.5,145.5 Q4195.1094,145.5 4194.8594,145.3281 Q4194.6094,145.1563 4194.5,144.7031 Q4194.4531,144.3906 4194.2813,144.2188 Q4193.9688,143.8906 4193.4063,143.7031 Q4192.8438,143.5 4192.2813,143.5 Q4191.5781,143.5 4190.9844,143.7813 Q4190.4063,144.0625 4189.9531,144.6875 Q4189.5,145.3125 4189.5,146.1719 L4189.5,147.0938 Q4189.5,148.125 4190.3438,148.8125 Q4191.1875,149.5 4192.6875,149.5 Q4193.5781,149.5 4194.2031,149.2969 Q4194.5625,149.1875 4194.9688,148.8281 Q4195.2344,148.625 4195.375,148.5625 Q4195.5156,148.5 4195.6875,148.5 Q4196.0156,148.5 4196.25,148.7656 Q4196.5,149.0156 4196.5,149.375 Q4196.5,149.7188 4196.1563,150.125 Q4195.6563,150.7188 4194.8594,151.0469 Q4193.8125,151.5 4192.5313,151.5 Q4191.0313,151.5 4189.8281,150.9063 Q4188.8594,150.4375 4188.1719,149.4219 Q4187.5,148.4063 4187.5,147.2031 L4187.5,146.1094 Q4187.5,144.8594 4188.0938,143.7656 Q4188.7031,142.6719 4189.75,142.0938 Q4190.8125,141.5 4192,141.5 Q4192.7188,141.5 4193.3438,141.75 Q4193.9688,142 4194.5,142.5 Z " fill="#000000"/><text fill="#000000" font-family="sans-serif" font-size="14" lengthAdjust="spacing" textLength="89" x="4206.5" y="151.4995">TextFormatter</text><line style="stroke:#181818;stroke-width:0.5;" x1="4178.5" x2="4297.5" y1="162" y2="162"/><line style="stroke:#181818;stroke-width:0.5;" x1="4178.5" x2="4297.5" y1="170" y2="170"/></g><!--class StringConverter--><g id="elem_StringConverter"><rect fill="#F1F1F1" height="48" id="StringConverter" rx="2.5" ry="2.5" style="stroke:#181818;stroke-width:0.5;" width="132" x="4537" y="130"/><ellipse cx="4552" cy="146" fill="#ADD1B2" rx="11" ry="11" style="stroke:#181818;stroke-width:1.0;"/><path d="M4554,142.5 Q4554.2031,142 4554.4375,141.75 Q4554.6719,141.5 4554.9375,141.5 Q4555.4063,141.5 4555.7031,141.7813 Q4556,142.0625 4556,142.7188 L4556,144.2813 Q4556,144.9375 4555.7188,145.2188 Q4555.4375,145.5 4555,145.5 Q4554.6094,145.5 4554.3594,145.3281 Q4554.1094,145.1563 4554,144.7031 Q4553.9531,144.3906 4553.7813,144.2188 Q4553.4688,143.8906 4552.9063,143.7031 Q4552.3438,143.5 4551.7813,143.5 Q4551.0781,143.5 4550.4844,143.7813 Q4549.9063,144.0625 4549.4531,144.6875 Q4549,145.3125 4549,146.1719 L4549,147.0938 Q4549,148.125 4549.8438,148.8125 Q4550.6875,149.5 4552.1875,149.5 Q4553.0781,149.5 4553.7031,149.2969 Q4554.0625,149.1875 4554.4688,148.8281 Q4554.7344,148.625 4554.875,148.5625 Q4555.0156,148.5 4555.1875,148.5 Q4555.5156,148.5 4555.75,148.7656 Q4556,149.0156 4556,149.375 Q4556,149.7188 4555.6563,150.125 Q4555.1563,150.7188 4554.3594,151.0469 Q4553.3125,151.5 4552.0313,151.5 Q4550.5313,151.5 4549.3281,150.9063 Q4548.3594,150.4375 4547.6719,149.4219 Q4547,148.4063 4547,147.2031 L4547,146.1094 Q4547,144.8594 4547.5938,143.7656 Q4548.2031,142.6719 4549.25,142.0938 Q4550.3125,141.5 4551.5,141.5 Q4552.2188,141.5 4552.8438,141.75 Q4553.4688,142 4554,142.5 Z " fill="#000000"/><text fill="#000000" font-family="sans-serif" font-size="14" lengthAdjust="spacing" textLength="100" x="4566" y="151.4995">StringConverter</text><line style="stroke:#181818;stroke-width:0.5;" x1="4538" x2="4668" y1="162" y2="162"/><line style="stroke:#181818;stroke-width:0.5;" x1="4538" x2="4668" y1="170" y2="170"/></g><!--class Application--><g id="elem_Application"><rect fill="#F1F1F1" height="48" id="Application" rx="2.5" ry="2.5" style="stroke:#181818;stroke-width:0.5;" width="101" x="4379.5" y="130"/><ellipse cx="4394.5" cy="146" fill="#ADD1B2" rx="11" ry="11" style="stroke:#181818;stroke-width:1.0;"/><path d="M4396.5,142.5 Q4396.7031,142 4396.9375,141.75 Q4397.1719,141.5 4397.4375,141.5 Q4397.9063,141.5 4398.2031,141.7813 Q4398.5,142.0625 4398.5,142.7188 L4398.5,144.2813 Q4398.5,144.9375 4398.2188,145.2188 Q4397.9375,145.5 4397.5,145.5 Q4397.1094,145.5 4396.8594,145.3281 Q4396.6094,145.1563 4396.5,144.7031 Q4396.4531,144.3906 4396.2813,144.2188 Q4395.9688,143.8906 4395.4063,143.7031 Q4394.8438,143.5 4394.2813,143.5 Q4393.5781,143.5 4392.9844,143.7813 Q4392.4063,144.0625 4391.9531,144.6875 Q4391.5,145.3125 4391.5,146.1719 L4391.5,147.0938 Q4391.5,148.125 4392.3438,148.8125 Q4393.1875,149.5 4394.6875,149.5 Q4395.5781,149.5 4396.2031,149.2969 Q4396.5625,149.1875 4396.9688,148.8281 Q4397.2344,148.625 4397.375,148.5625 Q4397.5156,148.5 4397.6875,148.5 Q4398.0156,148.5 4398.25,148.7656 Q4398.5,149.0156 4398.5,149.375 Q4398.5,149.7188 4398.1563,150.125 Q4397.6563,150.7188 4396.8594,151.0469 Q4395.8125,151.5 4394.5313,151.5 Q4393.0313,151.5 4391.8281,150.9063 Q4390.8594,150.4375 4390.1719,149.4219 Q4389.5,148.4063 4389.5,147.2031 L4389.5,146.1094 Q4389.5,144.8594 4390.0938,143.7656 Q4390.7031,142.6719 4391.75,142.0938 Q4392.8125,141.5 4394,141.5 Q4394.7188,141.5 4395.3438,141.75 Q4395.9688,142 4396.5,142.5 Z " fill="#000000"/><text fill="#000000" font-family="sans-serif" font-size="14" lengthAdjust="spacing" textLength="69" x="4408.5" y="151.4995">Application</text><line style="stroke:#181818;stroke-width:0.5;" x1="4380.5" x2="4479.5" y1="162" y2="162"/><line style="stroke:#181818;stroke-width:0.5;" x1="4380.5" x2="4479.5" y1="170" y2="170"/></g><!--reverse link TextFormatter to DecimalTextFormatter--><g id="link_TextFormatter_DecimalTextFormatter"><path codeLine="159" d="M4156.8,154.76 C3643.6,153.6 867.11,152.21 725,258 C631.38,327.69 621.69,485.58 621.51,545.15 " fill="none" id="TextFormatter-backto-DecimalTextFormatter" style="stroke:#181818;stroke-width:1.0;"/><polygon fill="none" points="4157.18,147.77,4177.16,154.81,4157.14,161.77,4157.18,147.77" style="stroke:#181818;stroke-width:1.0;"/></g><!--reverse link StringConverter to RoomTypeConverter--><g id="link_StringConverter_RoomTypeConverter"><path codeLine="160" d="M4689.27,158.93 C4919.33,170.11 5535.08,204.71 5609,258 C5699.3,323.1 5732.5,460.36 5743.75,528.45 " fill="none" id="StringConverter-backto-RoomTypeConverter" style="stroke:#181818;stroke-width:1.0;"/><polygon fill="none" points="4688.84,165.92,4669.2,157.97,4689.51,151.94,4688.84,165.92" style="stroke:#181818;stroke-width:1.0;"/></g><!--reverse link BasicController to NavigationBarController--><g id="link_BasicController_NavigationBarController"><path codeLine="161" d="M3560.54,632.25 C3462.44,662.72 3353.26,705.92 3264,765 C3236.02,783.52 3209.88,808.64 3187.72,833.49 " fill="none" id="BasicController-backto-NavigationBarController" style="stroke:#181818;stroke-width:1.0;"/><polygon fill="none" points="3558.51,625.55,3579.69,626.42,3562.59,638.94,3558.51,625.55" style="stroke:#181818;stroke-width:1.0;"/></g><!--reverse link BookingDataService to BookingDataServiceImpl--><g id="link_BookingDataService_BookingDataServiceImpl"><path codeLine="162" d="M1346,682.45 C1346,713.95 1346,748.66 1346,781.72 " fill="none" id="BookingDataService-backto-BookingDataServiceImpl" style="stroke:#181818;stroke-width:1.0;stroke-dasharray:7.0,7.0;"/><polygon fill="none" points="1339,682.25,1346,662.25,1353,682.25,1339,682.25" style="stroke:#181818;stroke-width:1.0;"/></g><!--reverse link StringConverter to RoomEntityConverter--><g id="link_StringConverter_RoomEntityConverter"><path codeLine="163" d="M4689.27,156.13 C4864.93,160.1 5256.2,177.93 5359,258 C5445.07,325.04 5472.13,460.76 5480.44,528.36 " fill="none" id="StringConverter-backto-RoomEntityConverter" style="stroke:#181818;stroke-width:1.0;"/><polygon fill="none" points="4689.05,163.13,4669.2,155.72,4689.34,149.13,4689.05,163.13" style="stroke:#181818;stroke-width:1.0;"/></g><!--reverse link ComponentContentLoader to ComponentContentLoaderImpl--><g id="link_ComponentContentLoader_ComponentContentLoaderImpl"><path codeLine="164" d="M4739,613.81 C4739,672.6 4739,778.54 4739,850.29 " fill="none" id="ComponentContentLoader-backto-ComponentContentLoaderImpl" style="stroke:#181818;stroke-width:1.0;stroke-dasharray:7.0,7.0;"/><polygon fill="none" points="4732,613.76,4739,593.76,4746,613.76,4732,613.76" style="stroke:#181818;stroke-width:1.0;"/></g><!--reverse link Application to BasicController--><g id="link_Application_BasicController"><path codeLine="165" d="M4388.51,191.24 C4367.05,209.49 4340.13,231.58 4315,250 C4228.21,313.61 4129.17,379.02 4042.81,433.88 " fill="none" id="Application-backto-BasicController" style="stroke:#181818;stroke-width:1.0;"/><polygon fill="none" points="4384.01,185.88,4403.75,178.17,4393.13,196.51,4384.01,185.88" style="stroke:#181818;stroke-width:1.0;"/></g><!--reverse link Application to MainApplication--><g id="link_Application_MainApplication"><path codeLine="166" d="M4397.04,192.91 C4375.99,214.12 4346.76,238.54 4315,250 C4288.26,259.65 243.59,240.73 221,258 C133.76,324.71 130.37,471.95 133.5,536.79 " fill="none" id="Application-backto-MainApplication" style="stroke:#181818;stroke-width:1.0;"/><polygon fill="none" points="4392.02,188.02,4410.83,178.26,4402.22,197.62,4392.02,188.02" style="stroke:#181818;stroke-width:1.0;"/></g><!--reverse link StringConverter to CateringTypeEntityConverter--><g id="link_StringConverter_CateringTypeEntityConverter"><path codeLine="167" d="M4689.41,155.43 C4783.97,160.1 4935.69,180.43 5038,258 C5129.95,327.72 5179.41,461.57 5199.34,528.43 " fill="none" id="StringConverter-backto-CateringTypeEntityConverter" style="stroke:#181818;stroke-width:1.0;"/><polygon fill="none" points="4688.98,162.42,4669.27,154.63,4689.53,148.43,4688.98,162.42" style="stroke:#181818;stroke-width:1.0;"/></g><!--reverse link BasicController to OverviewCalenderController--><g id="link_BasicController_OverviewCalenderController"><path codeLine="168" d="M3666.21,719.12 C3628.62,754.75 3589.36,791.96 3554.72,824.79 " fill="none" id="BasicController-backto-OverviewCalenderController" style="stroke:#181818;stroke-width:1.0;"/><polygon fill="none" points="3661.74,713.7,3681.07,705.03,3671.37,723.87,3661.74,713.7" style="stroke:#181818;stroke-width:1.0;"/></g><!--reverse link BasicController to ImageHeaderController--><g id="link_BasicController_ImageHeaderController"><path codeLine="169" d="M3823,725.2 C3823,765.35 3823,807.06 3823,841.93 " fill="none" id="BasicController-backto-ImageHeaderController" style="stroke:#181818;stroke-width:1.0;"/><polygon fill="none" points="3816,725.03,3823,705.03,3830,725.03,3816,725.03" style="stroke:#181818;stroke-width:1.0;"/></g><!--reverse link BasicController to BookingCreationController--><g id="link_BasicController_BookingCreationController"><path codeLine="170" d="M3990.76,718.44 C4008.19,733.81 4025.96,749.48 4043.53,764.97 " fill="none" id="BasicController-backto-BookingCreationController" style="stroke:#181818;stroke-width:1.0;"/><polygon fill="none" points="3985.92,723.51,3975.55,705.03,3995.18,713,3985.92,723.51" style="stroke:#181818;stroke-width:1.0;"/></g><!--SRC=[jHZBSk8uyCvNk6ekJasWzdLCJHKGagMMG3QlFQQ4t0cQo1PZoMooCyEtRxTiumUoOpAJ2yZThNvtgoKkcTOUL-4W-aE4Uh1I1gH-qGR20LUHYPMK46jQRo0sjBnIAhnvMSCu1tbVUn-zQnEBwD4pAbtuETKaCiAy72555U8zn2hCQDE_ezxt7czH1sYVW5I1ZCdNNjyJaV54W8kQ08DBX5w3EI7CIAadb98YFtbn0TAe735v13CDV59reqJWQVk928VoI4fV5M8Bs3TxgPG45ddm9M5I-ulbP-2M9ObSCRqQgu0OjHj_mKGqNA-buCm85LcNfu8DYmrwa3q2yK2c43ym3XrYAXKBw7-imhMAqBqOKOD_Cmj74UqgbLdDsKOyMir6B1xl43O-CxO4wKLiWwWfRlp50VlL0VlD0VlT0ViZTuM8C3-O5F-LuX88pPOI2lreHnhKVagnOb5G9l0lLA9XiW6Y-TvhTS4QRHUuYZWCicGwPOPTGxmH7ARXMbeFVCKW6S6_UsbMNB08enLx49PnC_L8GAaUKVSPSZqfylmJ9TnGohCOWA3wJCMN40iLr1Bk6CM3_JdAkOpnWygh8CgvbJ7QFogBtIVEeKIOUIwp_XfPo8pQlzbvFiEMIi_VAyCwyJ08Oj3Qp_xTHES9QEFRNpT1RbTUtZwrW1emCww-DTUqei1nITRndWt7xTppyXSF6SzfTBgyNGUu0RjBpT1-YTmAhH1NJEwdmRhvvC4pyCG01IVuEu4OWx1R8hvBLsZFOypXxK_9oEsX6Rdjcf7RGt9ksoNdjg_btFRjERTzrvphthLhXthAuVLZlNga_vJZdE8u304R-ClkPEzkH_j1bhNXZyvMk_KS-RxS0-LjWYGLUJTUASIDr7CzGu_AzBiIgT5djCUrUfafpgGjcjtg87QlxQ_MMC73KPMldd_b88oO5hnozBiz_i6xP37Gp1RYAVWdK8WGE2s-Iao42ugzBsCHbSSEPD8qXaHkEEvec7su4-oSkVgEuUD32il4Wd_D8OBZl2vGAfDooVZJ2KNdKl0dY6sB78EKjhsTiXTQdp5k53PqPqm_x2PF2uIKoYAQ_82S6r1MQNSCQ2ns8VmtjfhzH6jlEVlqbC_xq1zeGQLcUr3ZMMoeFS2_64-8gbwZkM-K68EpEey1bStwJ0f3P15wgtZnIKTx7kKqrIv4H1yE17lE42LkHZNmGXLTd0YSyN4DqfKnUH6DKsEi5MD9GeBQnDovwIyuJzOs5JkwVk_8E7IVyyXCawxnGCt2jtV0uqpbE9Ztqx8y01rWNbt5xadfhk9IFc8d3bcqIyGC2ZZ52xtQWRCor2g9ETnXabyoisgxQkKPSbvYdsV8aDimfobIev-K1RTjm4vtNT7cq39_-uIHHSCcF-fLyUlMkuBKIwE4BF8aepAd9VRKRkD5UpjeBkx62SI-Rz1t0scPR9w4IuWTXAv1dPTWkorP2YshNifIgQMfq3nonoHstsbaLCgkTC74W2VhmjugvWQUpPa06U3D8sJ6rF4xCtQdIuhFRrXy1VmfDNsHNhOqgY82kiLIRUVrlNytipkdqJenf5knotbArxQDH6nM0NkfYpewj8MzfVrLRXYlRakCa7f0LjpIgZhGVMORDj1VfCLxJDEVNpAx4slWEDz96yWyXXsroYkEka1DiwnlZHQBlwRpy_lnrMHuCrtCx- -catyST8kxoHMXxiV3sMH-Ehbg8fmDv-Utm_F9_UXsVZgRq6ZS8oyyF0yqZNTvlnXKxJdvrkyVx8MSCL4CKld5ZDJ2iUkBRU_mSRwZr8RnilUcTuUJRuF1cr_Uti67jMcrzyDFh2q67dQ_pOrbnHFneFnStD7UMj1_W6ljlVed1wFb2l5-gTqyxB-VJESiztxY6iUS_m40]--></g></svg>